solid OpenSCAD_Model
  facet normal -1 0 0
    outer loop
      vertex 8 16 3
      vertex 8 61 5
      vertex 8 61 3
    endloop
  endfacet
  facet normal -1 -0 0
    outer loop
      vertex 8 61 5
      vertex 8 16 3
      vertex 8 16 5
    endloop
  endfacet
  facet normal -1 0 0
    outer loop
      vertex 8 75 3
      vertex 8 80.19 5
      vertex 8 80.19 3
    endloop
  endfacet
  facet normal -1 -0 0
    outer loop
      vertex 8 80.19 5
      vertex 8 75 3
      vertex 8 75 5
    endloop
  endfacet
  facet normal 0 0 1
    outer loop
      vertex 10 61 5
      vertex 8 61 5
      vertex 10 18 5
    endloop
  endfacet
  facet normal -0 0 1
    outer loop
      vertex 10 18 5
      vertex 21 16 5
      vertex 21 18 5
    endloop
  endfacet
  facet normal 0 0 1
    outer loop
      vertex 10 18 5
      vertex 8 16 5
      vertex 21 16 5
    endloop
  endfacet
  facet normal 0 0 1
    outer loop
      vertex 8 16 5
      vertex 10 18 5
      vertex 8 61 5
    endloop
  endfacet
  facet normal 0 0 1
    outer loop
      vertex 109.6 18 5
      vertex 111.6 80 5
      vertex 109.6 80 5
    endloop
  endfacet
  facet normal 0 0 1
    outer loop
      vertex 111.6 80 5
      vertex 109.6 18 5
      vertex 111.6 16 5
    endloop
  endfacet
  facet normal 0 0 1
    outer loop
      vertex 96.6 16 5
      vertex 109.6 18 5
      vertex 96.6 18 5
    endloop
  endfacet
  facet normal 0 0 1
    outer loop
      vertex 109.6 18 5
      vertex 96.6 16 5
      vertex 111.6 16 5
    endloop
  endfacet
  facet normal -0 0 1
    outer loop
      vertex 10 86 5
      vertex 108.64 84 5
      vertex 108.64 86 5
    endloop
  endfacet
  facet normal 0 0 1
    outer loop
      vertex 108.64 84 5
      vertex 10 86 5
      vertex 10 84 5
    endloop
  endfacet
  facet normal -0 0 1
    outer loop
      vertex 8 80.19 5
      vertex 10 75 5
      vertex 10 80.19 5
    endloop
  endfacet
  facet normal 0 0 1
    outer loop
      vertex 10 75 5
      vertex 8 80.19 5
      vertex 8 75 5
    endloop
  endfacet
  facet normal 1 -0 0
    outer loop
      vertex 111.6 16 5
      vertex 111.6 80 3
      vertex 111.6 80 5
    endloop
  endfacet
  facet normal 1 0 0
    outer loop
      vertex 111.6 80 3
      vertex 111.6 16 5
      vertex 111.6 16 3
    endloop
  endfacet
  facet normal 0 0 -1
    outer loop
      vertex 8.5 8.5 0
      vertex 21 26 0
      vertex 21 0 0
    endloop
  endfacet
  facet normal 0 0 -1
    outer loop
      vertex 8.5 8.5 0
      vertex 21 0 0
      vertex 8.5 2 0
    endloop
  endfacet
  facet normal 0 0 -1
    outer loop
      vertex 0 0 0
      vertex 8.5 2 0
      vertex 21 0 0
    endloop
  endfacet
  facet normal -0 0 -1
    outer loop
      vertex 2 2 0
      vertex 0 0 0
      vertex 2 8.5 0
    endloop
  endfacet
  facet normal -0 0 -1
    outer loop
      vertex 8.5 2 0
      vertex 0 0 0
      vertex 2 2 0
    endloop
  endfacet
  facet normal 0 0 -1
    outer loop
      vertex 2 8.5 0
      vertex 21 26 0
      vertex 8.5 8.5 0
    endloop
  endfacet
  facet normal -0 0 -1
    outer loop
      vertex 21 26 0
      vertex 2 8.5 0
      vertex 0 61 0
    endloop
  endfacet
  facet normal 0 0 -1
    outer loop
      vertex 21 26 0
      vertex 0 61 0
      vertex 16 61 0
    endloop
  endfacet
  facet normal 0 0 -1
    outer loop
      vertex 0 61 0
      vertex 2 8.5 0
      vertex 0 0 0
    endloop
  endfacet
  facet normal -0 0 -1
    outer loop
      vertex 10 90 0
      vertex 8.5 88.7 0
      vertex 10 90.2 0
    endloop
  endfacet
  facet normal 0 0 -1
    outer loop
      vertex 2 88.7 0
      vertex 10 90.2 0
      vertex 8.5 88.7 0
    endloop
  endfacet
  facet normal 0 0 -1
    outer loop
      vertex 2 88.7 0
      vertex 0 90.2 0
      vertex 10 90.2 0
    endloop
  endfacet
  facet normal 0 0 -1
    outer loop
      vertex 2 82.2 0
      vertex 0 90.2 0
      vertex 2 88.7 0
    endloop
  endfacet
  facet normal 0 0 -1
    outer loop
      vertex 118 10 0
      vertex 96.6 26 0
      vertex 118 80 0
    endloop
  endfacet
  facet normal 0 -0 -1
    outer loop
      vertex 110.2 82.2 0
      vertex 118 80 0
      vertex 96.6 26 0
    endloop
  endfacet
  facet normal 0 0 -1
    outer loop
      vertex 116.7 2 0
      vertex 118.2 10 0
      vertex 118.2 0 0
    endloop
  endfacet
  facet normal -0 0 -1
    outer loop
      vertex 118.2 10 0
      vertex 116.7 8.5 0
      vertex 118 10 0
    endloop
  endfacet
  facet normal 0 0 -1
    outer loop
      vertex 116.7 8.5 0
      vertex 118.2 10 0
      vertex 116.7 2 0
    endloop
  endfacet
  facet normal 0 0 -1
    outer loop
      vertex 118.2 0 0
      vertex 110.2 2 0
      vertex 116.7 2 0
    endloop
  endfacet
  facet normal 0 0 -1
    outer loop
      vertex 96.6 0 0
      vertex 110.2 8.5 0
      vertex 110.2 2 0
    endloop
  endfacet
  facet normal 0 0 -1
    outer loop
      vertex 118 80 0
      vertex 110.2 82.2 0
      vertex 116.7 82.2 0
    endloop
  endfacet
  facet normal -0 0 -1
    outer loop
      vertex 110.2 8.5 0
      vertex 96.6 0 0
      vertex 96.6 26 0
    endloop
  endfacet
  facet normal 0 0 -1
    outer loop
      vertex 96.6 0 0
      vertex 110.2 2 0
      vertex 118.2 0 0
    endloop
  endfacet
  facet normal 0 0 -1
    outer loop
      vertex 116.7 82.2 0
      vertex 118.14 80 0
      vertex 118 80 0
    endloop
  endfacet
  facet normal 0 0 -1
    outer loop
      vertex 110.2 8.5 0
      vertex 118 10 0
      vertex 116.7 8.5 0
    endloop
  endfacet
  facet normal 0 0 -1
    outer loop
      vertex 96.6 26 0
      vertex 118 10 0
      vertex 110.2 8.5 0
    endloop
  endfacet
  facet normal 0 0 -1
    outer loop
      vertex 118.14 80 0
      vertex 116.7 82.2 0
      vertex 118.14 90 0
    endloop
  endfacet
  facet normal 0 0 -1
    outer loop
      vertex 116.7 88.7 0
      vertex 118.14 90 0
      vertex 116.7 82.2 0
    endloop
  endfacet
  facet normal 0 0 -1
    outer loop
      vertex 110.2 88.7 0
      vertex 118.14 90 0
      vertex 116.7 88.7 0
    endloop
  endfacet
  facet normal 0 0 -1
    outer loop
      vertex 16 61 0
      vertex 110.2 82.2 0
      vertex 96.6 26 0
    endloop
  endfacet
  facet normal 0 0 -1
    outer loop
      vertex 16 61 0
      vertex 96.6 26 0
      vertex 21 26 0
    endloop
  endfacet
  facet normal 0 0 -1
    outer loop
      vertex 16 75 0
      vertex 110.2 82.2 0
      vertex 16 61 0
    endloop
  endfacet
  facet normal -0 0 -1
    outer loop
      vertex 110.2 82.2 0
      vertex 16 75 0
      vertex 110.2 88.7 0
    endloop
  endfacet
  facet normal 0 0 -1
    outer loop
      vertex 10 90 0
      vertex 110.2 88.7 0
      vertex 16 75 0
    endloop
  endfacet
  facet normal 0 0 -1
    outer loop
      vertex 110.2 88.7 0
      vertex 10 90 0
      vertex 118.14 90 0
    endloop
  endfacet
  facet normal 0 0 -1
    outer loop
      vertex 8.5 88.7 0
      vertex 10 90 0
      vertex 8.5 82.2 0
    endloop
  endfacet
  facet normal 0 0 -1
    outer loop
      vertex 16 75 0
      vertex 8.5 82.2 0
      vertex 10 90 0
    endloop
  endfacet
  facet normal 0 0 -1
    outer loop
      vertex 0 75 0
      vertex 8.5 82.2 0
      vertex 16 75 0
    endloop
  endfacet
  facet normal 0 0 -1
    outer loop
      vertex 0 90.2 0
      vertex 2 82.2 0
      vertex 0 75 0
    endloop
  endfacet
  facet normal -0 0 -1
    outer loop
      vertex 8.5 82.2 0
      vertex 0 75 0
      vertex 2 82.2 0
    endloop
  endfacet
  facet normal 0 -1 0
    outer loop
      vertex 8 16 3
      vertex 21 16 5
      vertex 8 16 5
    endloop
  endfacet
  facet normal 0 -1 -0
    outer loop
      vertex 21 16 5
      vertex 8 16 3
      vertex 21 16 3
    endloop
  endfacet
  facet normal 0 -1 0
    outer loop
      vertex 96.6 16 3
      vertex 111.6 16 5
      vertex 96.6 16 5
    endloop
  endfacet
  facet normal 0 -1 -0
    outer loop
      vertex 111.6 16 5
      vertex 96.6 16 3
      vertex 111.6 16 3
    endloop
  endfacet
  facet normal 0 1 -0
    outer loop
      vertex 108.64 86 3
      vertex 10 86 5
      vertex 108.64 86 5
    endloop
  endfacet
  facet normal 0 1 0
    outer loop
      vertex 10 86 5
      vertex 108.64 86 3
      vertex 10 86 3
    endloop
  endfacet
  facet normal 1 0 0
    outer loop
      vertex 10 86 5
      vertex 10 90.19 5
      vertex 10 90.19 8
    endloop
  endfacet
  facet normal 1 0 0
    outer loop
      vertex 10 90.19 5
      vertex 10 86 5
      vertex 10 90 3
    endloop
  endfacet
  facet normal 1 -0 0
    outer loop
      vertex 10 84 8
      vertex 10 86 5
      vertex 10 90.19 8
    endloop
  endfacet
  facet normal 1 0 0
    outer loop
      vertex 10 86 5
      vertex 10 84 8
      vertex 10 84 5
    endloop
  endfacet
  facet normal 1 0 0
    outer loop
      vertex 10 90 3
      vertex 10 90.2 5
      vertex 10 90.19 5
    endloop
  endfacet
  facet normal 1 0 0
    outer loop
      vertex 10 90.2 5
      vertex 10 90 3
      vertex 10 90.2 0
    endloop
  endfacet
  facet normal 1 0 0
    outer loop
      vertex 10 90.2 0
      vertex 10 90 3
      vertex 10 90 0
    endloop
  endfacet
  facet normal 1 0 0
    outer loop
      vertex 10 90 3
      vertex 10 86 5
      vertex 10 86 3
    endloop
  endfacet
  facet normal -1 0 0
    outer loop
      vertex 10 80.19 5
      vertex 10 75 5
      vertex 10 80.19 8
    endloop
  endfacet
  facet normal -1 0 0
    outer loop
      vertex 10 80.19 8
      vertex 10 84 10
      vertex 10 84 8
    endloop
  endfacet
  facet normal -1 0 0
    outer loop
      vertex 10 80.19 8
      vertex 10 75 10
      vertex 10 84 10
    endloop
  endfacet
  facet normal -1 0 0
    outer loop
      vertex 10 75 10
      vertex 10 80.19 8
      vertex 10 75 5
    endloop
  endfacet
  facet normal -1 0 0
    outer loop
      vertex 10 18 5
      vertex 10 61 10
      vertex 10 61 5
    endloop
  endfacet
  facet normal -1 -0 0
    outer loop
      vertex 10 61 10
      vertex 10 18 5
      vertex 10 18 10
    endloop
  endfacet
  facet normal 0 0 1
    outer loop
      vertex 11 61 10
      vertex 10 61 10
      vertex 11 19 10
    endloop
  endfacet
  facet normal -0 0 1
    outer loop
      vertex 11 19 10
      vertex 21 18 10
      vertex 21 19 10
    endloop
  endfacet
  facet normal 0 0 1
    outer loop
      vertex 11 19 10
      vertex 10 18 10
      vertex 21 18 10
    endloop
  endfacet
  facet normal 0 0 1
    outer loop
      vertex 10 18 10
      vertex 11 19 10
      vertex 10 61 10
    endloop
  endfacet
  facet normal 0 0 1
    outer loop
      vertex 109.6 84 10
      vertex 108.6 83 10
      vertex 109.6 18 10
    endloop
  endfacet
  facet normal 0 0 1
    outer loop
      vertex 109.6 84 10
      vertex 11 83 10
      vertex 108.6 83 10
    endloop
  endfacet
  facet normal -0 0 1
    outer loop
      vertex 10 84 10
      vertex 11 83 10
      vertex 109.6 84 10
    endloop
  endfacet
  facet normal 0 0 1
    outer loop
      vertex 10 75 10
      vertex 11 83 10
      vertex 10 84 10
    endloop
  endfacet
  facet normal 0 0 1
    outer loop
      vertex 11 83 10
      vertex 10 75 10
      vertex 11 75 10
    endloop
  endfacet
  facet normal -0 0 1
    outer loop
      vertex 108.6 19 10
      vertex 109.6 18 10
      vertex 108.6 83 10
    endloop
  endfacet
  facet normal 0 0 1
    outer loop
      vertex 96.6 18 10
      vertex 108.6 19 10
      vertex 96.6 19 10
    endloop
  endfacet
  facet normal 0 0 1
    outer loop
      vertex 108.6 19 10
      vertex 96.6 18 10
      vertex 109.6 18 10
    endloop
  endfacet
  facet normal 1 0 0
    outer loop
      vertex 109.6 84 10
      vertex 109.6 80 8
      vertex 109.6 84 8
    endloop
  endfacet
  facet normal 1 -0 0
    outer loop
      vertex 109.6 18 10
      vertex 109.6 80 8
      vertex 109.6 84 10
    endloop
  endfacet
  facet normal 1 0 0
    outer loop
      vertex 109.6 18 5
      vertex 109.6 80 8
      vertex 109.6 18 10
    endloop
  endfacet
  facet normal 1 0 0
    outer loop
      vertex 109.6 80 8
      vertex 109.6 18 5
      vertex 109.6 80 5
    endloop
  endfacet
  facet normal 0 1 0
    outer loop
      vertex 108.64 84 8
      vertex 109.6 84 10
      vertex 109.6 84 8
    endloop
  endfacet
  facet normal 0 1 0
    outer loop
      vertex 109.6 84 10
      vertex 108.64 84 8
      vertex 10 84 10
    endloop
  endfacet
  facet normal 0 1 0
    outer loop
      vertex 108.64 84 8
      vertex 10 84 8
      vertex 10 84 10
    endloop
  endfacet
  facet normal 0 1 -0
    outer loop
      vertex 108.64 84 5
      vertex 10 84 8
      vertex 108.64 84 8
    endloop
  endfacet
  facet normal 0 1 0
    outer loop
      vertex 10 84 8
      vertex 108.64 84 5
      vertex 10 84 5
    endloop
  endfacet
  facet normal 0 -1 0
    outer loop
      vertex 10 18 5
      vertex 21 18 10
      vertex 10 18 10
    endloop
  endfacet
  facet normal 0 -1 -0
    outer loop
      vertex 21 18 10
      vertex 10 18 5
      vertex 21 18 5
    endloop
  endfacet
  facet normal 0 -1 0
    outer loop
      vertex 96.6 18 5
      vertex 109.6 18 10
      vertex 96.6 18 10
    endloop
  endfacet
  facet normal 0 -1 -0
    outer loop
      vertex 109.6 18 10
      vertex 96.6 18 5
      vertex 109.6 18 5
    endloop
  endfacet
  facet normal 1 -0 0
    outer loop
      vertex 11 75 10
      vertex 11 83 3
      vertex 11 83 10
    endloop
  endfacet
  facet normal 1 0 0
    outer loop
      vertex 11 83 3
      vertex 11 75 10
      vertex 11 75 3
    endloop
  endfacet
  facet normal 1 -0 0
    outer loop
      vertex 11 19 10
      vertex 11 61 3
      vertex 11 61 10
    endloop
  endfacet
  facet normal 1 0 0
    outer loop
      vertex 11 61 3
      vertex 11 19 10
      vertex 11 19 3
    endloop
  endfacet
  facet normal -1 0 0
    outer loop
      vertex 108.6 19 3
      vertex 108.6 83 10
      vertex 108.6 83 3
    endloop
  endfacet
  facet normal -1 -0 0
    outer loop
      vertex 108.6 83 10
      vertex 108.6 19 3
      vertex 108.6 19 10
    endloop
  endfacet
  facet normal 0 -1 0
    outer loop
      vertex 11 83 3
      vertex 108.6 83 10
      vertex 11 83 10
    endloop
  endfacet
  facet normal 0 -1 -0
    outer loop
      vertex 108.6 83 10
      vertex 11 83 3
      vertex 108.6 83 3
    endloop
  endfacet
  facet normal 0 0 1
    outer loop
      vertex 108.6 83 3
      vertex 96.6 26 3
      vertex 108.6 19 3
    endloop
  endfacet
  facet normal -0 0 1
    outer loop
      vertex 16 61 3
      vertex 96.6 26 3
      vertex 108.6 83 3
    endloop
  endfacet
  facet normal 0 0 1
    outer loop
      vertex 96.6 26 3
      vertex 16 61 3
      vertex 21 26 3
    endloop
  endfacet
  facet normal 0 0 1
    outer loop
      vertex 16 61 3
      vertex 108.6 83 3
      vertex 16 75 3
    endloop
  endfacet
  facet normal -0 0 1
    outer loop
      vertex 11 83 3
      vertex 16 75 3
      vertex 108.6 83 3
    endloop
  endfacet
  facet normal 0 0 1
    outer loop
      vertex 16 75 3
      vertex 11 83 3
      vertex 11 75 3
    endloop
  endfacet
  facet normal 0 0 1
    outer loop
      vertex 108.6 19 3
      vertex 96.6 26 3
      vertex 96.6 19 3
    endloop
  endfacet
  facet normal -0 0 1
    outer loop
      vertex 11 61 3
      vertex 21 26 3
      vertex 16 61 3
    endloop
  endfacet
  facet normal 0 0 1
    outer loop
      vertex 21 26 3
      vertex 11 61 3
      vertex 11 19 3
    endloop
  endfacet
  facet normal 0 0 1
    outer loop
      vertex 21 26 3
      vertex 11 19 3
      vertex 21 19 3
    endloop
  endfacet
  facet normal 0 0 1
    outer loop
      vertex 8 61 3
      vertex 0 61 3
      vertex 8 16 3
    endloop
  endfacet
  facet normal 0 0 1
    outer loop
      vertex 21 16 3
      vertex 10 10 3
      vertex 21 0 3
    endloop
  endfacet
  facet normal -0 0 1
    outer loop
      vertex 8 16 3
      vertex 10 10 3
      vertex 21 16 3
    endloop
  endfacet
  facet normal 0 0 1
    outer loop
      vertex 8 16 3
      vertex 0 10 3
      vertex 10 10 3
    endloop
  endfacet
  facet normal 0 0 1
    outer loop
      vertex 0 10 3
      vertex 8 16 3
      vertex 0 61 3
    endloop
  endfacet
  facet normal 0 0 1
    outer loop
      vertex 21 0 3
      vertex 10 10 3
      vertex 10 0 3
    endloop
  endfacet
  facet normal 0 0 1
    outer loop
      vertex 111.6 16 3
      vertex 118 80 3
      vertex 111.6 80 3
    endloop
  endfacet
  facet normal 0 0 1
    outer loop
      vertex 118 80 3
      vertex 111.6 16 3
      vertex 118 10 3
    endloop
  endfacet
  facet normal 0 0 1
    outer loop
      vertex 111.6 16 3
      vertex 108.19 10 3
      vertex 118 10 3
    endloop
  endfacet
  facet normal -0 0 1
    outer loop
      vertex 96.6 16 3
      vertex 108.19 10 3
      vertex 111.6 16 3
    endloop
  endfacet
  facet normal 0 0 1
    outer loop
      vertex 96.6 0 3
      vertex 108.19 10 3
      vertex 96.6 16 3
    endloop
  endfacet
  facet normal 0 0 1
    outer loop
      vertex 108.19 10 3
      vertex 96.6 0 3
      vertex 108.19 0 3
    endloop
  endfacet
  facet normal -0 0 1
    outer loop
      vertex 10 90 3
      vertex 108.64 86 3
      vertex 108.64 90 3
    endloop
  endfacet
  facet normal 0 0 1
    outer loop
      vertex 108.64 86 3
      vertex 10 90 3
      vertex 10 86 3
    endloop
  endfacet
  facet normal -0 0 1
    outer loop
      vertex 0 80.19 3
      vertex 8 75 3
      vertex 8 80.19 3
    endloop
  endfacet
  facet normal 0 0 1
    outer loop
      vertex 8 75 3
      vertex 0 80.19 3
      vertex 0 75 3
    endloop
  endfacet
  facet normal 0 1 -0
    outer loop
      vertex 21 19 3
      vertex 11 19 10
      vertex 21 19 10
    endloop
  endfacet
  facet normal 0 1 0
    outer loop
      vertex 11 19 10
      vertex 21 19 3
      vertex 11 19 3
    endloop
  endfacet
  facet normal 0 1 -0
    outer loop
      vertex 108.6 19 3
      vertex 96.6 19 10
      vertex 108.6 19 10
    endloop
  endfacet
  facet normal 0 1 0
    outer loop
      vertex 96.6 19 10
      vertex 108.6 19 3
      vertex 96.6 19 3
    endloop
  endfacet
  facet normal -1 0 0
    outer loop
      vertex 0 90.2 0
      vertex 0 90.19 5
      vertex 0 90.2 5
    endloop
  endfacet
  facet normal -1 0 0
    outer loop
      vertex 0 80.19 8
      vertex 0 90.19 5
      vertex 0 80.19 3
    endloop
  endfacet
  facet normal -1 0 0
    outer loop
      vertex 0 90.2 0
      vertex 0 80.19 3
      vertex 0 90.19 5
    endloop
  endfacet
  facet normal -1 0 0
    outer loop
      vertex 0 75 0
      vertex 0 80.19 3
      vertex 0 90.2 0
    endloop
  endfacet
  facet normal -1 -0 0
    outer loop
      vertex 0 80.19 3
      vertex 0 75 0
      vertex 0 75 3
    endloop
  endfacet
  facet normal -1 0 0
    outer loop
      vertex 0 90.19 5
      vertex 0 80.19 8
      vertex 0 90.19 8
    endloop
  endfacet
  facet normal -1 0 0
    outer loop
      vertex 0 61 0
      vertex 0 10 3
      vertex 0 61 3
    endloop
  endfacet
  facet normal -1 0 0
    outer loop
      vertex 0 0 0
      vertex 0 10 3
      vertex 0 61 0
    endloop
  endfacet
  facet normal -1 0 0
    outer loop
      vertex 0 0 8
      vertex 0 10 3
      vertex 0 0 0
    endloop
  endfacet
  facet normal -1 0 0
    outer loop
      vertex 0 10 3
      vertex 0 0 8
      vertex 0 10 8
    endloop
  endfacet
  facet normal 1 -0 0
    outer loop
      vertex 118 10 3
      vertex 118 80 0
      vertex 118 80 3
    endloop
  endfacet
  facet normal 1 0 0
    outer loop
      vertex 118 80 0
      vertex 118 10 3
      vertex 118 10 0
    endloop
  endfacet
  facet normal 0 1 0
    outer loop
      vertex 118.14 90 8
      vertex 108.64 90 3
      vertex 108.64 90 8
    endloop
  endfacet
  facet normal 0 1 -0
    outer loop
      vertex 118.14 90 0
      vertex 108.64 90 3
      vertex 118.14 90 8
    endloop
  endfacet
  facet normal 0 1 0
    outer loop
      vertex 10 90 0
      vertex 108.64 90 3
      vertex 118.14 90 0
    endloop
  endfacet
  facet normal 0 1 0
    outer loop
      vertex 108.64 90 3
      vertex 10 90 0
      vertex 10 90 3
    endloop
  endfacet
  facet normal 0 -1 0
    outer loop
      vertex 96.6 0 3
      vertex 96.6 0 0
      vertex 108.19 0 3
    endloop
  endfacet
  facet normal 0 -1 0
    outer loop
      vertex 108.19 0 8
      vertex 118.19 0 5
      vertex 118.19 0 8
    endloop
  endfacet
  facet normal 0 -1 0
    outer loop
      vertex 108.19 0 3
      vertex 118.19 0 5
      vertex 108.19 0 8
    endloop
  endfacet
  facet normal 0 -1 0
    outer loop
      vertex 118.2 0 0
      vertex 118.19 0 5
      vertex 108.19 0 3
    endloop
  endfacet
  facet normal 0 -1 0
    outer loop
      vertex 118.2 0 0
      vertex 108.19 0 3
      vertex 96.6 0 0
    endloop
  endfacet
  facet normal 0 -1 0
    outer loop
      vertex 118.19 0 5
      vertex 118.2 0 0
      vertex 118.2 0 5
    endloop
  endfacet
  facet normal 0 -1 0
    outer loop
      vertex 0 0 8
      vertex 10 0 3
      vertex 10 0 8
    endloop
  endfacet
  facet normal 0 -1 0
    outer loop
      vertex 0 0 0
      vertex 10 0 3
      vertex 0 0 8
    endloop
  endfacet
  facet normal 0 -1 0
    outer loop
      vertex 21 0 0
      vertex 10 0 3
      vertex 0 0 0
    endloop
  endfacet
  facet normal 0 -1 0
    outer loop
      vertex 10 0 3
      vertex 21 0 0
      vertex 21 0 3
    endloop
  endfacet
  facet normal 0 0 1
    outer loop
      vertex 8.5 2 8
      vertex 10 10 8
      vertex 8.5 8.5 8
    endloop
  endfacet
  facet normal 0 0 1
    outer loop
      vertex 10 10 8
      vertex 2 8.5 8
      vertex 8.5 8.5 8
    endloop
  endfacet
  facet normal 0 0 1
    outer loop
      vertex 2 8.5 8
      vertex 0 10 8
      vertex 2 2 8
    endloop
  endfacet
  facet normal -0 0 1
    outer loop
      vertex 0 10 8
      vertex 2 8.5 8
      vertex 10 10 8
    endloop
  endfacet
  facet normal 0 0 1
    outer loop
      vertex 10 10 8
      vertex 8.5 2 8
      vertex 10 0 8
    endloop
  endfacet
  facet normal -0 0 1
    outer loop
      vertex 2 2 8
      vertex 10 0 8
      vertex 8.5 2 8
    endloop
  endfacet
  facet normal 0 0 1
    outer loop
      vertex 2 2 8
      vertex 0 0 8
      vertex 10 0 8
    endloop
  endfacet
  facet normal 0 0 1
    outer loop
      vertex 0 0 8
      vertex 2 2 8
      vertex 0 10 8
    endloop
  endfacet
  facet normal 1 -0 0
    outer loop
      vertex 10 0 8
      vertex 10 10 3
      vertex 10 10 8
    endloop
  endfacet
  facet normal 1 0 0
    outer loop
      vertex 10 10 3
      vertex 10 0 8
      vertex 10 0 3
    endloop
  endfacet
  facet normal 0 1 -0
    outer loop
      vertex 10 10 3
      vertex 0 10 8
      vertex 10 10 8
    endloop
  endfacet
  facet normal 0 1 0
    outer loop
      vertex 0 10 8
      vertex 10 10 3
      vertex 0 10 3
    endloop
  endfacet
  facet normal -1 0 0
    outer loop
      vertex 108.64 86 5
      vertex 108.64 90 3
      vertex 108.64 86 3
    endloop
  endfacet
  facet normal -1 0 0
    outer loop
      vertex 108.64 90 3
      vertex 108.64 86 5
      vertex 108.64 90 8
    endloop
  endfacet
  facet normal -1 0 0
    outer loop
      vertex 108.64 84 8
      vertex 108.64 86 5
      vertex 108.64 84 5
    endloop
  endfacet
  facet normal -1 0 0
    outer loop
      vertex 108.64 86 5
      vertex 108.64 84 8
      vertex 108.64 90 8
    endloop
  endfacet
  facet normal 0 0 1
    outer loop
      vertex 116.7 82.2 8
      vertex 118.14 90 8
      vertex 116.7 88.7 8
    endloop
  endfacet
  facet normal 0 0 1
    outer loop
      vertex 118.14 90 8
      vertex 110.2 88.7 8
      vertex 116.7 88.7 8
    endloop
  endfacet
  facet normal 0 0 1
    outer loop
      vertex 110.2 88.7 8
      vertex 109.6 84 8
      vertex 110.2 82.2 8
    endloop
  endfacet
  facet normal -0 0 1
    outer loop
      vertex 108.64 90 8
      vertex 110.2 88.7 8
      vertex 118.14 90 8
    endloop
  endfacet
  facet normal 0 0 1
    outer loop
      vertex 108.64 84 8
      vertex 110.2 88.7 8
      vertex 108.64 90 8
    endloop
  endfacet
  facet normal 0 0 1
    outer loop
      vertex 110.2 88.7 8
      vertex 108.64 84 8
      vertex 109.6 84 8
    endloop
  endfacet
  facet normal 0 0 1
    outer loop
      vertex 118.14 90 8
      vertex 116.7 82.2 8
      vertex 118.14 80 8
    endloop
  endfacet
  facet normal 0 0 1
    outer loop
      vertex 109.6 80 8
      vertex 116.7 82.2 8
      vertex 110.2 82.2 8
    endloop
  endfacet
  facet normal 0 0 1
    outer loop
      vertex 116.7 82.2 8
      vertex 109.6 80 8
      vertex 118.14 80 8
    endloop
  endfacet
  facet normal 0 0 1
    outer loop
      vertex 109.6 80 8
      vertex 110.2 82.2 8
      vertex 109.6 84 8
    endloop
  endfacet
  facet normal 1 -0 0
    outer loop
      vertex 118.14 80 8
      vertex 118.14 90 0
      vertex 118.14 90 8
    endloop
  endfacet
  facet normal 1 0 0
    outer loop
      vertex 118.14 90 0
      vertex 118.14 80 8
      vertex 118.14 80 0
    endloop
  endfacet
  facet normal 0 -1 0
    outer loop
      vertex 111.6 80 5
      vertex 109.6 80 8
      vertex 109.6 80 5
    endloop
  endfacet
  facet normal 0 -1 0
    outer loop
      vertex 109.6 80 8
      vertex 111.6 80 5
      vertex 118.14 80 8
    endloop
  endfacet
  facet normal 0 -1 0
    outer loop
      vertex 118 80 3
      vertex 111.6 80 5
      vertex 111.6 80 3
    endloop
  endfacet
  facet normal 0 -1 0
    outer loop
      vertex 111.6 80 5
      vertex 118 80 3
      vertex 118.14 80 8
    endloop
  endfacet
  facet normal 0 -1 0
    outer loop
      vertex 118.14 80 0
      vertex 118 80 3
      vertex 118 80 0
    endloop
  endfacet
  facet normal 0 -1 0
    outer loop
      vertex 118 80 3
      vertex 118.14 80 0
      vertex 118.14 80 8
    endloop
  endfacet
  facet normal -0 0 1
    outer loop
      vertex 8.5 88.7 8
      vertex 10 84 8
      vertex 10 90.19 8
    endloop
  endfacet
  facet normal 0 0 1
    outer loop
      vertex 10 84 8
      vertex 8.5 88.7 8
      vertex 8.5 82.2 8
    endloop
  endfacet
  facet normal 0 0 1
    outer loop
      vertex 10 90.19 8
      vertex 2 88.7 8
      vertex 8.5 88.7 8
    endloop
  endfacet
  facet normal 0 0 1
    outer loop
      vertex 2 88.7 8
      vertex 0 90.19 8
      vertex 2 82.2 8
    endloop
  endfacet
  facet normal -0 0 1
    outer loop
      vertex 0 90.19 8
      vertex 2 88.7 8
      vertex 10 90.19 8
    endloop
  endfacet
  facet normal 0 0 1
    outer loop
      vertex 10 84 8
      vertex 8.5 82.2 8
      vertex 10 80.19 8
    endloop
  endfacet
  facet normal -0 0 1
    outer loop
      vertex 2 82.2 8
      vertex 10 80.19 8
      vertex 8.5 82.2 8
    endloop
  endfacet
  facet normal 0 0 1
    outer loop
      vertex 2 82.2 8
      vertex 0 80.19 8
      vertex 10 80.19 8
    endloop
  endfacet
  facet normal 0 0 1
    outer loop
      vertex 0 80.19 8
      vertex 2 82.2 8
      vertex 0 90.19 8
    endloop
  endfacet
  facet normal 0 1 -0
    outer loop
      vertex 10 90.19 5
      vertex 0 90.19 8
      vertex 10 90.19 8
    endloop
  endfacet
  facet normal 0 1 0
    outer loop
      vertex 0 90.19 8
      vertex 10 90.19 5
      vertex 0 90.19 5
    endloop
  endfacet
  facet normal 0 -1 0
    outer loop
      vertex 0 80.19 8
      vertex 8 80.19 5
      vertex 10 80.19 8
    endloop
  endfacet
  facet normal 0 -1 0
    outer loop
      vertex 0 80.19 3
      vertex 8 80.19 5
      vertex 0 80.19 8
    endloop
  endfacet
  facet normal 0 -1 -0
    outer loop
      vertex 8 80.19 5
      vertex 0 80.19 3
      vertex 8 80.19 3
    endloop
  endfacet
  facet normal 0 -1 -0
    outer loop
      vertex 10 80.19 8
      vertex 8 80.19 5
      vertex 10 80.19 5
    endloop
  endfacet
  facet normal -1 0 0
    outer loop
      vertex 108.19 0 3
      vertex 108.19 10 8
      vertex 108.19 10 3
    endloop
  endfacet
  facet normal -1 -0 0
    outer loop
      vertex 108.19 10 8
      vertex 108.19 0 3
      vertex 108.19 0 8
    endloop
  endfacet
  facet normal 0 0 1
    outer loop
      vertex 116.7 2 8
      vertex 118.19 10 8
      vertex 116.7 8.5 8
    endloop
  endfacet
  facet normal 0 0 1
    outer loop
      vertex 118.19 10 8
      vertex 110.2 8.5 8
      vertex 116.7 8.5 8
    endloop
  endfacet
  facet normal 0 0 1
    outer loop
      vertex 110.2 8.5 8
      vertex 108.19 10 8
      vertex 110.2 2 8
    endloop
  endfacet
  facet normal -0 0 1
    outer loop
      vertex 108.19 10 8
      vertex 110.2 8.5 8
      vertex 118.19 10 8
    endloop
  endfacet
  facet normal 0 0 1
    outer loop
      vertex 118.19 10 8
      vertex 116.7 2 8
      vertex 118.19 0 8
    endloop
  endfacet
  facet normal -0 0 1
    outer loop
      vertex 110.2 2 8
      vertex 118.19 0 8
      vertex 116.7 2 8
    endloop
  endfacet
  facet normal 0 0 1
    outer loop
      vertex 110.2 2 8
      vertex 108.19 0 8
      vertex 118.19 0 8
    endloop
  endfacet
  facet normal 0 0 1
    outer loop
      vertex 108.19 0 8
      vertex 110.2 2 8
      vertex 108.19 10 8
    endloop
  endfacet
  facet normal 1 -0 0
    outer loop
      vertex 118.19 0 8
      vertex 118.19 10 5
      vertex 118.19 10 8
    endloop
  endfacet
  facet normal 1 0 0
    outer loop
      vertex 118.19 10 5
      vertex 118.19 0 8
      vertex 118.19 0 5
    endloop
  endfacet
  facet normal 0 1 0
    outer loop
      vertex 118.2 10 5
      vertex 118 10 3
      vertex 118.19 10 5
    endloop
  endfacet
  facet normal 0 1 -0
    outer loop
      vertex 118.2 10 0
      vertex 118 10 3
      vertex 118.2 10 5
    endloop
  endfacet
  facet normal 0 1 0
    outer loop
      vertex 118 10 3
      vertex 118.2 10 0
      vertex 118 10 0
    endloop
  endfacet
  facet normal 0 1 -0
    outer loop
      vertex 118.19 10 5
      vertex 108.19 10 8
      vertex 118.19 10 8
    endloop
  endfacet
  facet normal 0 1 0
    outer loop
      vertex 108.19 10 3
      vertex 118.19 10 5
      vertex 118 10 3
    endloop
  endfacet
  facet normal 0 1 0
    outer loop
      vertex 118.19 10 5
      vertex 108.19 10 3
      vertex 108.19 10 8
    endloop
  endfacet
  facet normal -0 0 1
    outer loop
      vertex 0 90.2 5
      vertex 10 90.19 5
      vertex 10 90.2 5
    endloop
  endfacet
  facet normal 0 0 1
    outer loop
      vertex 10 90.19 5
      vertex 0 90.2 5
      vertex 0 90.19 5
    endloop
  endfacet
  facet normal 0 1 -0
    outer loop
      vertex 10 90.2 0
      vertex 0 90.2 5
      vertex 10 90.2 5
    endloop
  endfacet
  facet normal 0 1 0
    outer loop
      vertex 0 90.2 5
      vertex 10 90.2 0
      vertex 0 90.2 0
    endloop
  endfacet
  facet normal -0 0 1
    outer loop
      vertex 118.19 10 5
      vertex 118.2 0 5
      vertex 118.2 10 5
    endloop
  endfacet
  facet normal 0 0 1
    outer loop
      vertex 118.2 0 5
      vertex 118.19 10 5
      vertex 118.19 0 5
    endloop
  endfacet
  facet normal 1 -0 0
    outer loop
      vertex 118.2 0 5
      vertex 118.2 10 0
      vertex 118.2 10 5
    endloop
  endfacet
  facet normal 1 0 0
    outer loop
      vertex 118.2 10 0
      vertex 118.2 0 5
      vertex 118.2 0 0
    endloop
  endfacet
  facet normal 1 0 0
    outer loop
      vertex 21 18 5
      vertex 21 19 10
      vertex 21 18 10
    endloop
  endfacet
  facet normal 1 -0 0
    outer loop
      vertex 21 19 3
      vertex 21 26 0
      vertex 21 26 3
    endloop
  endfacet
  facet normal 1 0 0
    outer loop
      vertex 21 19 10
      vertex 21 18 5
      vertex 21 19 3
    endloop
  endfacet
  facet normal 1 0 0
    outer loop
      vertex 21 16 3
      vertex 21 18 5
      vertex 21 16 5
    endloop
  endfacet
  facet normal 1 0 0
    outer loop
      vertex 21 18 5
      vertex 21 16 3
      vertex 21 19 3
    endloop
  endfacet
  facet normal 1 -0 0
    outer loop
      vertex 21 16 3
      vertex 21 26 0
      vertex 21 19 3
    endloop
  endfacet
  facet normal 1 0 0
    outer loop
      vertex 21 0 0
      vertex 21 16 3
      vertex 21 0 3
    endloop
  endfacet
  facet normal 1 0 0
    outer loop
      vertex 21 16 3
      vertex 21 0 0
      vertex 21 26 0
    endloop
  endfacet
  facet normal -1 0 0
    outer loop
      vertex 96.6 26 0
      vertex 96.6 19 3
      vertex 96.6 26 3
    endloop
  endfacet
  facet normal -1 0 0
    outer loop
      vertex 96.6 19 3
      vertex 96.6 18 5
      vertex 96.6 19 10
    endloop
  endfacet
  facet normal -1 0 0
    outer loop
      vertex 96.6 19 3
      vertex 96.6 16 3
      vertex 96.6 18 5
    endloop
  endfacet
  facet normal -1 0 0
    outer loop
      vertex 96.6 26 0
      vertex 96.6 16 3
      vertex 96.6 19 3
    endloop
  endfacet
  facet normal -1 0 0
    outer loop
      vertex 96.6 0 0
      vertex 96.6 16 3
      vertex 96.6 26 0
    endloop
  endfacet
  facet normal -1 -0 0
    outer loop
      vertex 96.6 16 3
      vertex 96.6 0 0
      vertex 96.6 0 3
    endloop
  endfacet
  facet normal -1 -0 0
    outer loop
      vertex 96.6 19 10
      vertex 96.6 18 5
      vertex 96.6 18 10
    endloop
  endfacet
  facet normal -1 -0 0
    outer loop
      vertex 96.6 18 5
      vertex 96.6 16 3
      vertex 96.6 16 5
    endloop
  endfacet
  facet normal 0 -1 0
    outer loop
      vertex 21 26 0
      vertex 96.6 26 3
      vertex 21 26 3
    endloop
  endfacet
  facet normal 0 -1 -0
    outer loop
      vertex 96.6 26 3
      vertex 21 26 0
      vertex 96.6 26 0
    endloop
  endfacet
  facet normal -1 0 0
    outer loop
      vertex 16 61 0
      vertex 16 75 3
      vertex 16 75 0
    endloop
  endfacet
  facet normal -1 -0 0
    outer loop
      vertex 16 75 3
      vertex 16 61 0
      vertex 16 61 3
    endloop
  endfacet
  facet normal 0 1 -0
    outer loop
      vertex 16 61 0
      vertex 11 61 3
      vertex 16 61 3
    endloop
  endfacet
  facet normal 0 1 0
    outer loop
      vertex 11 61 3
      vertex 16 61 0
      vertex 8 61 3
    endloop
  endfacet
  facet normal 0 1 0
    outer loop
      vertex 0 61 0
      vertex 8 61 3
      vertex 16 61 0
    endloop
  endfacet
  facet normal 0 1 0
    outer loop
      vertex 8 61 3
      vertex 0 61 0
      vertex 0 61 3
    endloop
  endfacet
  facet normal 0 1 0
    outer loop
      vertex 11 61 10
      vertex 10 61 5
      vertex 10 61 10
    endloop
  endfacet
  facet normal 0 1 -0
    outer loop
      vertex 11 61 3
      vertex 10 61 5
      vertex 11 61 10
    endloop
  endfacet
  facet normal 0 1 0
    outer loop
      vertex 8 61 3
      vertex 10 61 5
      vertex 11 61 3
    endloop
  endfacet
  facet normal 0 1 0
    outer loop
      vertex 10 61 5
      vertex 8 61 3
      vertex 8 61 5
    endloop
  endfacet
  facet normal 0 -1 0
    outer loop
      vertex 8 75 5
      vertex 8 75 3
      vertex 10 75 5
    endloop
  endfacet
  facet normal 0 -1 0
    outer loop
      vertex 10 75 5
      vertex 11 75 10
      vertex 10 75 10
    endloop
  endfacet
  facet normal 0 -1 0
    outer loop
      vertex 10 75 5
      vertex 11 75 3
      vertex 11 75 10
    endloop
  endfacet
  facet normal 0 -1 0
    outer loop
      vertex 11 75 3
      vertex 10 75 5
      vertex 8 75 3
    endloop
  endfacet
  facet normal 0 -1 0
    outer loop
      vertex 0 75 0
      vertex 8 75 3
      vertex 0 75 3
    endloop
  endfacet
  facet normal 0 -1 0
    outer loop
      vertex 16 75 0
      vertex 8 75 3
      vertex 0 75 0
    endloop
  endfacet
  facet normal 0 -1 0
    outer loop
      vertex 8 75 3
      vertex 16 75 0
      vertex 11 75 3
    endloop
  endfacet
  facet normal 0 -1 0
    outer loop
      vertex 11 75 3
      vertex 16 75 0
      vertex 16 75 3
    endloop
  endfacet
  facet normal 1 -0 0
    outer loop
      vertex 2 2 8
      vertex 2 8.5 0
      vertex 2 8.5 8
    endloop
  endfacet
  facet normal 1 0 0
    outer loop
      vertex 2 8.5 0
      vertex 2 2 8
      vertex 2 2 0
    endloop
  endfacet
  facet normal -1 0 0
    outer loop
      vertex 8.5 2 0
      vertex 8.5 8.5 8
      vertex 8.5 8.5 0
    endloop
  endfacet
  facet normal -1 -0 0
    outer loop
      vertex 8.5 8.5 8
      vertex 8.5 2 0
      vertex 8.5 2 8
    endloop
  endfacet
  facet normal 0 -1 0
    outer loop
      vertex 2 8.5 0
      vertex 8.5 8.5 8
      vertex 2 8.5 8
    endloop
  endfacet
  facet normal 0 -1 -0
    outer loop
      vertex 8.5 8.5 8
      vertex 2 8.5 0
      vertex 8.5 8.5 0
    endloop
  endfacet
  facet normal 0 1 -0
    outer loop
      vertex 8.5 2 0
      vertex 2 2 8
      vertex 8.5 2 8
    endloop
  endfacet
  facet normal 0 1 0
    outer loop
      vertex 2 2 8
      vertex 8.5 2 0
      vertex 2 2 0
    endloop
  endfacet
  facet normal 1 -0 0
    outer loop
      vertex 110.2 82.2 8
      vertex 110.2 88.7 0
      vertex 110.2 88.7 8
    endloop
  endfacet
  facet normal 1 0 0
    outer loop
      vertex 110.2 88.7 0
      vertex 110.2 82.2 8
      vertex 110.2 82.2 0
    endloop
  endfacet
  facet normal -1 0 0
    outer loop
      vertex 116.7 82.2 0
      vertex 116.7 88.7 8
      vertex 116.7 88.7 0
    endloop
  endfacet
  facet normal -1 -0 0
    outer loop
      vertex 116.7 88.7 8
      vertex 116.7 82.2 0
      vertex 116.7 82.2 8
    endloop
  endfacet
  facet normal 0 1 -0
    outer loop
      vertex 116.7 82.2 0
      vertex 110.2 82.2 8
      vertex 116.7 82.2 8
    endloop
  endfacet
  facet normal 0 1 0
    outer loop
      vertex 110.2 82.2 8
      vertex 116.7 82.2 0
      vertex 110.2 82.2 0
    endloop
  endfacet
  facet normal 0 -1 0
    outer loop
      vertex 110.2 88.7 0
      vertex 116.7 88.7 8
      vertex 110.2 88.7 8
    endloop
  endfacet
  facet normal 0 -1 -0
    outer loop
      vertex 116.7 88.7 8
      vertex 110.2 88.7 0
      vertex 116.7 88.7 0
    endloop
  endfacet
  facet normal 1 -0 0
    outer loop
      vertex 2 82.2 8
      vertex 2 88.7 0
      vertex 2 88.7 8
    endloop
  endfacet
  facet normal 1 0 0
    outer loop
      vertex 2 88.7 0
      vertex 2 82.2 8
      vertex 2 82.2 0
    endloop
  endfacet
  facet normal -1 0 0
    outer loop
      vertex 8.5 82.2 0
      vertex 8.5 88.7 8
      vertex 8.5 88.7 0
    endloop
  endfacet
  facet normal -1 -0 0
    outer loop
      vertex 8.5 88.7 8
      vertex 8.5 82.2 0
      vertex 8.5 82.2 8
    endloop
  endfacet
  facet normal 0 1 -0
    outer loop
      vertex 8.5 82.2 0
      vertex 2 82.2 8
      vertex 8.5 82.2 8
    endloop
  endfacet
  facet normal 0 1 0
    outer loop
      vertex 2 82.2 8
      vertex 8.5 82.2 0
      vertex 2 82.2 0
    endloop
  endfacet
  facet normal 0 -1 0
    outer loop
      vertex 2 88.7 0
      vertex 8.5 88.7 8
      vertex 2 88.7 8
    endloop
  endfacet
  facet normal 0 -1 -0
    outer loop
      vertex 8.5 88.7 8
      vertex 2 88.7 0
      vertex 8.5 88.7 0
    endloop
  endfacet
  facet normal 1 -0 0
    outer loop
      vertex 110.2 2 8
      vertex 110.2 8.5 0
      vertex 110.2 8.5 8
    endloop
  endfacet
  facet normal 1 0 0
    outer loop
      vertex 110.2 8.5 0
      vertex 110.2 2 8
      vertex 110.2 2 0
    endloop
  endfacet
  facet normal -1 0 0
    outer loop
      vertex 116.7 2 0
      vertex 116.7 8.5 8
      vertex 116.7 8.5 0
    endloop
  endfacet
  facet normal -1 -0 0
    outer loop
      vertex 116.7 8.5 8
      vertex 116.7 2 0
      vertex 116.7 2 8
    endloop
  endfacet
  facet normal 0 -1 0
    outer loop
      vertex 110.2 8.5 0
      vertex 116.7 8.5 8
      vertex 110.2 8.5 8
    endloop
  endfacet
  facet normal 0 -1 -0
    outer loop
      vertex 116.7 8.5 8
      vertex 110.2 8.5 0
      vertex 116.7 8.5 0
    endloop
  endfacet
  facet normal 0 1 -0
    outer loop
      vertex 116.7 2 0
      vertex 110.2 2 8
      vertex 116.7 2 8
    endloop
  endfacet
  facet normal 0 1 0
    outer loop
      vertex 110.2 2 8
      vertex 116.7 2 0
      vertex 110.2 2 0
    endloop
  endfacet
endsolid OpenSCAD_Model
