solid OpenSCAD_Model
  facet normal -1 0 0
    outer loop
      vertex 10 48 3
      vertex 10 84 7
      vertex 10 84 3
    endloop
  endfacet
  facet normal -1 -0 0
    outer loop
      vertex 10 84 7
      vertex 10 48 3
      vertex 10 48 7
    endloop
  endfacet
  facet normal 0 0 1
    outer loop
      vertex 41 84 7
      vertex 40 83 7
      vertex 41 48 7
    endloop
  endfacet
  facet normal 0 0 1
    outer loop
      vertex 41 84 7
      vertex 11 83 7
      vertex 40 83 7
    endloop
  endfacet
  facet normal 0 0 1
    outer loop
      vertex 11 83 7
      vertex 10 84 7
      vertex 11 49 7
    endloop
  endfacet
  facet normal -0 0 1
    outer loop
      vertex 10 84 7
      vertex 11 83 7
      vertex 41 84 7
    endloop
  endfacet
  facet normal -0 0 1
    outer loop
      vertex 40 49 7
      vertex 41 48 7
      vertex 40 83 7
    endloop
  endfacet
  facet normal -0 0 1
    outer loop
      vertex 11 49 7
      vertex 41 48 7
      vertex 40 49 7
    endloop
  endfacet
  facet normal 0 0 1
    outer loop
      vertex 11 49 7
      vertex 10 48 7
      vertex 41 48 7
    endloop
  endfacet
  facet normal 0 0 1
    outer loop
      vertex 10 48 7
      vertex 11 49 7
      vertex 10 84 7
    endloop
  endfacet
  facet normal 1 -0 0
    outer loop
      vertex 41 48 7
      vertex 41 84 3
      vertex 41 84 7
    endloop
  endfacet
  facet normal 1 0 0
    outer loop
      vertex 41 84 3
      vertex 41 48 7
      vertex 41 48 3
    endloop
  endfacet
  facet normal 0 1 -0
    outer loop
      vertex 41 84 3
      vertex 10 84 7
      vertex 41 84 7
    endloop
  endfacet
  facet normal 0 1 0
    outer loop
      vertex 10 84 7
      vertex 41 84 3
      vertex 10 84 3
    endloop
  endfacet
  facet normal -0 0 -1
    outer loop
      vertex 20 75 0
      vertex 6.5 46 0
      vertex 8.125 82 0
    endloop
  endfacet
  facet normal 0 0 -1
    outer loop
      vertex 2 82 0
      vertex 6.5 46 0
      vertex 2 8.125 0
    endloop
  endfacet
  facet normal 0 0 -1
    outer loop
      vertex 6.5 46 0
      vertex 2 82 0
      vertex 8.125 82 0
    endloop
  endfacet
  facet normal -0 0 -1
    outer loop
      vertex 43 64 0
      vertex 25.5 46 0
      vertex 32.25 75 0
    endloop
  endfacet
  facet normal -0 0 -1
    outer loop
      vertex 32.25 75 0
      vertex 25.5 46 0
      vertex 20 75 0
    endloop
  endfacet
  facet normal 0 0 -1
    outer loop
      vertex 39.5 9.5 0
      vertex 26.75 9.5 0
      vertex 37.75 39.5 0
    endloop
  endfacet
  facet normal 0 0 -1
    outer loop
      vertex 26.75 9.5 0
      vertex 25.5 39.5 0
      vertex 37.75 39.5 0
    endloop
  endfacet
  facet normal 0 0 -1
    outer loop
      vertex 18.75 46 0
      vertex 25.5 46 0
      vertex 25.5 39.5 0
    endloop
  endfacet
  facet normal 0 0 -1
    outer loop
      vertex 18.75 39.5 0
      vertex 25.5 39.5 0
      vertex 26.75 9.5 0
    endloop
  endfacet
  facet normal 0 0 -1
    outer loop
      vertex 25.5 46 0
      vertex 18.75 46 0
      vertex 20 75 0
    endloop
  endfacet
  facet normal 0 0 -1
    outer loop
      vertex 25.5 39.5 0
      vertex 18.75 39.5 0
      vertex 18.75 46 0
    endloop
  endfacet
  facet normal 0 0 -1
    outer loop
      vertex 14.5 9.5 0
      vertex 18.75 39.5 0
      vertex 26.75 9.5 0
    endloop
  endfacet
  facet normal 0 0 -1
    outer loop
      vertex 14.5 3 0
      vertex 8.125 8.125 0
      vertex 14.5 9.5 0
    endloop
  endfacet
  facet normal 0 0 -1
    outer loop
      vertex 6.5 39.5 0
      vertex 14.5 9.5 0
      vertex 8.125 8.125 0
    endloop
  endfacet
  facet normal 0 0 -1
    outer loop
      vertex 14.5 9.5 0
      vertex 6.5 39.5 0
      vertex 18.75 39.5 0
    endloop
  endfacet
  facet normal -0 0 -1
    outer loop
      vertex 6.5 39.5 0
      vertex 2 8.125 0
      vertex 6.5 46 0
    endloop
  endfacet
  facet normal 0 0 -1
    outer loop
      vertex 2 8.125 0
      vertex 6.5 39.5 0
      vertex 8.125 8.125 0
    endloop
  endfacet
  facet normal 0 0 -1
    outer loop
      vertex 44.5 46 0
      vertex 50.5 64 0
      vertex 56.75 46 0
    endloop
  endfacet
  facet normal -0 0 -1
    outer loop
      vertex 50.5 64 0
      vertex 44.5 46 0
      vertex 43 64 0
    endloop
  endfacet
  facet normal 0 0 -1
    outer loop
      vertex 44.5 39.5 0
      vertex 62 33 0
      vertex 51.75 9.5 0
    endloop
  endfacet
  facet normal 0 0 -1
    outer loop
      vertex 62 33 0
      vertex 44.5 39.5 0
      vertex 56.75 39.5 0
    endloop
  endfacet
  facet normal 0 0 -1
    outer loop
      vertex 37.75 46 0
      vertex 44.5 46 0
      vertex 44.5 39.5 0
    endloop
  endfacet
  facet normal 0 0 -1
    outer loop
      vertex 37.75 46 0
      vertex 44.5 39.5 0
      vertex 37.75 39.5 0
    endloop
  endfacet
  facet normal 0 0 -1
    outer loop
      vertex 37.75 39.5 0
      vertex 44.5 39.5 0
      vertex 39.5 9.5 0
    endloop
  endfacet
  facet normal 0 0 -1
    outer loop
      vertex 39.5 9.5 0
      vertex 44.5 39.5 0
      vertex 51.75 9.5 0
    endloop
  endfacet
  facet normal 0 0 -1
    outer loop
      vertex 109.75 76 0
      vertex 128.125 8.125 0
      vertex 122 8.125 0
    endloop
  endfacet
  facet normal 0 0 -1
    outer loop
      vertex 128.125 8.125 0
      vertex 109.75 76 0
      vertex 128.125 82 0
    endloop
  endfacet
  facet normal 0 0 -1
    outer loop
      vertex 128.125 8.125 0
      vertex 130 0 0
      vertex 128.125 2 0
    endloop
  endfacet
  facet normal 0 0 -1
    outer loop
      vertex 130 0 0
      vertex 122 2 0
      vertex 128.125 2 0
    endloop
  endfacet
  facet normal 0 0 -1
    outer loop
      vertex 105.75 3 0
      vertex 122 8.125 0
      vertex 122 2 0
    endloop
  endfacet
  facet normal -0 0 -1
    outer loop
      vertex 128.125 82 0
      vertex 109.75 76 0
      vertex 122 82 0
    endloop
  endfacet
  facet normal 0 0 -1
    outer loop
      vertex 109.75 82.5 0
      vertex 122 82 0
      vertex 109.75 76 0
    endloop
  endfacet
  facet normal -0 0 -1
    outer loop
      vertex 122 8.125 0
      vertex 105.75 3 0
      vertex 105.75 9.5 0
    endloop
  endfacet
  facet normal 0 0 -1
    outer loop
      vertex 130 0 0
      vertex 105.75 3 0
      vertex 122 2 0
    endloop
  endfacet
  facet normal 0 0 -1
    outer loop
      vertex 130 0 0
      vertex 93.5 3 0
      vertex 105.75 3 0
    endloop
  endfacet
  facet normal 0 0 -1
    outer loop
      vertex 51.75 3 0
      vertex 93.5 9.5 0
      vertex 93.5 3 0
    endloop
  endfacet
  facet normal 0 0 -1
    outer loop
      vertex 51.75 9.5 0
      vertex 93.5 9.5 0
      vertex 51.75 3 0
    endloop
  endfacet
  facet normal 0 0 -1
    outer loop
      vertex 62 33 0
      vertex 56.75 39.5 0
      vertex 62 39.5 0
    endloop
  endfacet
  facet normal -0 0 -1
    outer loop
      vertex 74.25 33 0
      vertex 51.75 9.5 0
      vertex 62 33 0
    endloop
  endfacet
  facet normal 0 0 -1
    outer loop
      vertex 93.5 9.5 0
      vertex 51.75 9.5 0
      vertex 74.25 33 0
    endloop
  endfacet
  facet normal 0 0 -1
    outer loop
      vertex 130 0 0
      vertex 51.75 3 0
      vertex 93.5 3 0
    endloop
  endfacet
  facet normal 0 0 -1
    outer loop
      vertex 0 0 0
      vertex 51.75 3 0
      vertex 130 0 0
    endloop
  endfacet
  facet normal 0 0 -1
    outer loop
      vertex 26.75 3 0
      vertex 39.5 9.5 0
      vertex 39.5 3 0
    endloop
  endfacet
  facet normal 0 0 -1
    outer loop
      vertex 26.75 9.5 0
      vertex 39.5 9.5 0
      vertex 26.75 3 0
    endloop
  endfacet
  facet normal -0 0 -1
    outer loop
      vertex 51.75 3 0
      vertex 0 0 0
      vertex 39.5 3 0
    endloop
  endfacet
  facet normal -0 0 -1
    outer loop
      vertex 39.5 3 0
      vertex 0 0 0
      vertex 26.75 3 0
    endloop
  endfacet
  facet normal 0 0 -1
    outer loop
      vertex 8.125 8.125 0
      vertex 14.5 3 0
      vertex 8.125 2 0
    endloop
  endfacet
  facet normal 0 -0 -1
    outer loop
      vertex 8.125 2 0
      vertex 26.75 3 0
      vertex 0 0 0
    endloop
  endfacet
  facet normal -0 0 -1
    outer loop
      vertex 26.75 3 0
      vertex 8.125 2 0
      vertex 14.5 3 0
    endloop
  endfacet
  facet normal 0 0 -1
    outer loop
      vertex 0 0 0
      vertex 2 8.125 0
      vertex 2 2 0
    endloop
  endfacet
  facet normal -0 0 -1
    outer loop
      vertex 2 8.125 0
      vertex 0 0 0
      vertex 2 82 0
    endloop
  endfacet
  facet normal -0 0 -1
    outer loop
      vertex 2 82 0
      vertex 0 0 0
      vertex 0 90 0
    endloop
  endfacet
  facet normal -0 0 -1
    outer loop
      vertex 8.125 2 0
      vertex 0 0 0
      vertex 2 2 0
    endloop
  endfacet
  facet normal 0 0 -1
    outer loop
      vertex 130 0 0
      vertex 128.125 8.125 0
      vertex 130 90 0
    endloop
  endfacet
  facet normal 0 0 -1
    outer loop
      vertex 128.125 82 0
      vertex 130 90 0
      vertex 128.125 8.125 0
    endloop
  endfacet
  facet normal 0 0 -1
    outer loop
      vertex 128.125 88.125 0
      vertex 130 90 0
      vertex 128.125 82 0
    endloop
  endfacet
  facet normal 0 0 -1
    outer loop
      vertex 122 88.125 0
      vertex 130 90 0
      vertex 128.125 88.125 0
    endloop
  endfacet
  facet normal 0 0 -1
    outer loop
      vertex 122 82 0
      vertex 109.75 82.5 0
      vertex 122 88.125 0
    endloop
  endfacet
  facet normal 0 0 -1
    outer loop
      vertex 97.5 82.5 0
      vertex 122 88.125 0
      vertex 109.75 82.5 0
    endloop
  endfacet
  facet normal 0 0 -1
    outer loop
      vertex 8.125 88.125 0
      vertex 122 88.125 0
      vertex 97.5 82.5 0
    endloop
  endfacet
  facet normal -0 0 -1
    outer loop
      vertex 109.75 76 0
      vertex 74.25 39.5 0
      vertex 97.5 76 0
    endloop
  endfacet
  facet normal 0 0 -1
    outer loop
      vertex 50.5 64 0
      vertex 97.5 76 0
      vertex 74.25 39.5 0
    endloop
  endfacet
  facet normal 0 0 -1
    outer loop
      vertex 56.75 46 0
      vertex 74.25 39.5 0
      vertex 62 39.5 0
    endloop
  endfacet
  facet normal 0 0 -1
    outer loop
      vertex 56.75 46 0
      vertex 62 39.5 0
      vertex 56.75 39.5 0
    endloop
  endfacet
  facet normal 0 0 -1
    outer loop
      vertex 50.5 64 0
      vertex 74.25 39.5 0
      vertex 56.75 46 0
    endloop
  endfacet
  facet normal 0 0 -1
    outer loop
      vertex 50.5 76.25 0
      vertex 97.5 76 0
      vertex 50.5 64 0
    endloop
  endfacet
  facet normal 0 0 -1
    outer loop
      vertex 97.5 76 0
      vertex 50.5 76.25 0
      vertex 97.5 82.5 0
    endloop
  endfacet
  facet normal 0 0 -1
    outer loop
      vertex 32.25 81.5 0
      vertex 97.5 82.5 0
      vertex 50.5 76.25 0
    endloop
  endfacet
  facet normal 0 0 -1
    outer loop
      vertex 32.25 81.5 0
      vertex 50.5 76.25 0
      vertex 43 76.25 0
    endloop
  endfacet
  facet normal 0 0 -1
    outer loop
      vertex 44.5 46 0
      vertex 37.75 46 0
      vertex 43 64 0
    endloop
  endfacet
  facet normal 0 0 -1
    outer loop
      vertex 25.5 46 0
      vertex 43 64 0
      vertex 37.75 46 0
    endloop
  endfacet
  facet normal 0 0 -1
    outer loop
      vertex 43 64 0
      vertex 32.25 75 0
      vertex 43 76.25 0
    endloop
  endfacet
  facet normal 0 0 -1
    outer loop
      vertex 32.25 81.5 0
      vertex 43 76.25 0
      vertex 32.25 75 0
    endloop
  endfacet
  facet normal 0 0 -1
    outer loop
      vertex 8.125 88.125 0
      vertex 97.5 82.5 0
      vertex 32.25 81.5 0
    endloop
  endfacet
  facet normal 0 0 -1
    outer loop
      vertex 8.125 88.125 0
      vertex 32.25 81.5 0
      vertex 20 81.5 0
    endloop
  endfacet
  facet normal 0 0 -1
    outer loop
      vertex 6.5 46 0
      vertex 20 75 0
      vertex 18.75 46 0
    endloop
  endfacet
  facet normal 0 0 -1
    outer loop
      vertex 20 75 0
      vertex 8.125 82 0
      vertex 20 81.5 0
    endloop
  endfacet
  facet normal 0 0 -1
    outer loop
      vertex 8.125 88.125 0
      vertex 20 81.5 0
      vertex 8.125 82 0
    endloop
  endfacet
  facet normal 0 0 -1
    outer loop
      vertex 122 88.125 0
      vertex 8.125 88.125 0
      vertex 130 90 0
    endloop
  endfacet
  facet normal 0 0 -1
    outer loop
      vertex 0 90 0
      vertex 8.125 88.125 0
      vertex 2 88.125 0
    endloop
  endfacet
  facet normal 0 0 -1
    outer loop
      vertex 8.125 88.125 0
      vertex 0 90 0
      vertex 130 90 0
    endloop
  endfacet
  facet normal 0 0 -1
    outer loop
      vertex 2 82 0
      vertex 0 90 0
      vertex 2 88.125 0
    endloop
  endfacet
  facet normal 0 0 -1
    outer loop
      vertex 122 8.125 0
      vertex 105.75 9.5 0
      vertex 109.75 76 0
    endloop
  endfacet
  facet normal 0 0 -1
    outer loop
      vertex 74.25 39.5 0
      vertex 105.75 9.5 0
      vertex 74.25 33 0
    endloop
  endfacet
  facet normal 0 0 -1
    outer loop
      vertex 105.75 9.5 0
      vertex 74.25 39.5 0
      vertex 109.75 76 0
    endloop
  endfacet
  facet normal 0 0 -1
    outer loop
      vertex 74.25 33 0
      vertex 105.75 9.5 0
      vertex 93.5 9.5 0
    endloop
  endfacet
  facet normal 0 -1 0
    outer loop
      vertex 10 48 3
      vertex 41 48 7
      vertex 10 48 7
    endloop
  endfacet
  facet normal 0 -1 -0
    outer loop
      vertex 41 48 7
      vertex 10 48 3
      vertex 41 48 3
    endloop
  endfacet
  facet normal 1 -0 0
    outer loop
      vertex 11 49 7
      vertex 11 83 3
      vertex 11 83 7
    endloop
  endfacet
  facet normal 1 0 0
    outer loop
      vertex 11 83 3
      vertex 11 49 7
      vertex 11 49 3
    endloop
  endfacet
  facet normal -1 0 0
    outer loop
      vertex 40 49 3
      vertex 40 83 7
      vertex 40 83 3
    endloop
  endfacet
  facet normal -1 -0 0
    outer loop
      vertex 40 83 7
      vertex 40 49 3
      vertex 40 49 7
    endloop
  endfacet
  facet normal 0 -1 0
    outer loop
      vertex 11 83 3
      vertex 40 83 7
      vertex 11 83 7
    endloop
  endfacet
  facet normal 0 -1 -0
    outer loop
      vertex 40 83 7
      vertex 11 83 3
      vertex 40 83 3
    endloop
  endfacet
  facet normal -0 0 1
    outer loop
      vertex 88 52.75 3
      vertex 112 11 3
      vertex 112 52.75 3
    endloop
  endfacet
  facet normal 0 0 1
    outer loop
      vertex 112 11 3
      vertex 88 52.75 3
      vertex 88 11 3
    endloop
  endfacet
  facet normal -0 0 1
    outer loop
      vertex 11 36.5 3
      vertex 55 11 3
      vertex 55 36.5 3
    endloop
  endfacet
  facet normal 0 0 1
    outer loop
      vertex 55 11 3
      vertex 11 36.5 3
      vertex 11 11 3
    endloop
  endfacet
  facet normal 0 0 1
    outer loop
      vertex 109.75 76 3
      vertex 117.25 87.75 3
      vertex 109.75 82.5 3
    endloop
  endfacet
  facet normal 0 0 1
    outer loop
      vertex 117.25 87.75 3
      vertex 97.5 82.5 3
      vertex 109.75 82.5 3
    endloop
  endfacet
  facet normal 0 0 1
    outer loop
      vertex 97.5 82.5 3
      vertex 89 87.75 3
      vertex 97.5 76 3
    endloop
  endfacet
  facet normal -0 0 1
    outer loop
      vertex 89 87.75 3
      vertex 97.5 82.5 3
      vertex 117.25 87.75 3
    endloop
  endfacet
  facet normal 0 0 1
    outer loop
      vertex 117.25 87.75 3
      vertex 109.75 76 3
      vertex 117.25 59 3
    endloop
  endfacet
  facet normal -0 0 1
    outer loop
      vertex 97.5 76 3
      vertex 117.25 59 3
      vertex 109.75 76 3
    endloop
  endfacet
  facet normal 0 0 1
    outer loop
      vertex 97.5 76 3
      vertex 89 59 3
      vertex 117.25 59 3
    endloop
  endfacet
  facet normal 0 0 1
    outer loop
      vertex 89 59 3
      vertex 97.5 76 3
      vertex 89 87.75 3
    endloop
  endfacet
  facet normal -0 0 1
    outer loop
      vertex 54 84.2 3
      vertex 83.5 55.5 3
      vertex 83.5 84.2 3
    endloop
  endfacet
  facet normal 0 0 1
    outer loop
      vertex 83.5 55.5 3
      vertex 54 84.2 3
      vertex 54 55.5 3
    endloop
  endfacet
  facet normal 0 0 1
    outer loop
      vertex 32.25 75 3
      vertex 40 83 3
      vertex 32.25 81.5 3
    endloop
  endfacet
  facet normal 0 0 1
    outer loop
      vertex 40 83 3
      vertex 20 81.5 3
      vertex 32.25 81.5 3
    endloop
  endfacet
  facet normal 0 0 1
    outer loop
      vertex 20 81.5 3
      vertex 11 83 3
      vertex 20 75 3
    endloop
  endfacet
  facet normal -0 0 1
    outer loop
      vertex 11 83 3
      vertex 20 81.5 3
      vertex 40 83 3
    endloop
  endfacet
  facet normal 0 0 1
    outer loop
      vertex 40 83 3
      vertex 32.25 75 3
      vertex 40 49 3
    endloop
  endfacet
  facet normal -0 0 1
    outer loop
      vertex 20 75 3
      vertex 40 49 3
      vertex 32.25 75 3
    endloop
  endfacet
  facet normal 0 0 1
    outer loop
      vertex 11 49 3
      vertex 20 75 3
      vertex 11 83 3
    endloop
  endfacet
  facet normal 0 0 1
    outer loop
      vertex 20 75 3
      vertex 11 49 3
      vertex 40 49 3
    endloop
  endfacet
  facet normal 0 0 1
    outer loop
      vertex 41 48 3
      vertex 25.5 46 3
      vertex 37.75 46 3
    endloop
  endfacet
  facet normal 0 0 1
    outer loop
      vertex 25.5 46 3
      vertex 18.75 46 3
      vertex 25.5 39.5 3
    endloop
  endfacet
  facet normal -0 0 1
    outer loop
      vertex 10 48 3
      vertex 25.5 46 3
      vertex 41 48 3
    endloop
  endfacet
  facet normal 0 0 1
    outer loop
      vertex 25.5 46 3
      vertex 10 48 3
      vertex 18.75 46 3
    endloop
  endfacet
  facet normal 0 0 1
    outer loop
      vertex 10 84 3
      vertex 9 81 3
      vertex 10 48 3
    endloop
  endfacet
  facet normal 0 0 1
    outer loop
      vertex 10 48 3
      vertex 6.5 46 3
      vertex 18.75 46 3
    endloop
  endfacet
  facet normal -0 0 1
    outer loop
      vertex 1 81 3
      vertex 10 48 3
      vertex 9 81 3
    endloop
  endfacet
  facet normal 0 0 1
    outer loop
      vertex 1 9 3
      vertex 6.5 46 3
      vertex 1 81 3
    endloop
  endfacet
  facet normal 0 0 1
    outer loop
      vertex 10 48 3
      vertex 1 81 3
      vertex 6.5 46 3
    endloop
  endfacet
  facet normal 0 0 1
    outer loop
      vertex 56 10 3
      vertex 39.5 9.5 3
      vertex 51.75 9.5 3
    endloop
  endfacet
  facet normal 0 0 1
    outer loop
      vertex 39.5 9.5 3
      vertex 26.75 9.5 3
      vertex 39.5 3 3
    endloop
  endfacet
  facet normal 0 0 1
    outer loop
      vertex 56 10 3
      vertex 26.75 9.5 3
      vertex 39.5 9.5 3
    endloop
  endfacet
  facet normal -0 0 1
    outer loop
      vertex 10 10 3
      vertex 26.75 9.5 3
      vertex 56 10 3
    endloop
  endfacet
  facet normal 0 0 1
    outer loop
      vertex 9 9 3
      vertex 14.5 9.5 3
      vertex 10 10 3
    endloop
  endfacet
  facet normal 0 0 1
    outer loop
      vertex 26.75 9.5 3
      vertex 10 10 3
      vertex 14.5 9.5 3
    endloop
  endfacet
  facet normal -0 0 1
    outer loop
      vertex 44.5 39.5 3
      vertex 56 37.5 3
      vertex 56.75 39.5 3
    endloop
  endfacet
  facet normal 0 0 1
    outer loop
      vertex 41 48 3
      vertex 43 64 3
      vertex 41 84 3
    endloop
  endfacet
  facet normal 0 0 1
    outer loop
      vertex 43 64 3
      vertex 41 48 3
      vertex 44.5 39.5 3
    endloop
  endfacet
  facet normal -0 0 1
    outer loop
      vertex 37.75 46 3
      vertex 44.5 39.5 3
      vertex 41 48 3
    endloop
  endfacet
  facet normal 0 0 1
    outer loop
      vertex 37.75 39.5 3
      vertex 44.5 39.5 3
      vertex 37.75 46 3
    endloop
  endfacet
  facet normal -0 0 1
    outer loop
      vertex 37.75 39.5 3
      vertex 56 37.5 3
      vertex 44.5 39.5 3
    endloop
  endfacet
  facet normal 0 0 1
    outer loop
      vertex 10 37.5 3
      vertex 37.75 39.5 3
      vertex 25.5 39.5 3
    endloop
  endfacet
  facet normal 0 0 1
    outer loop
      vertex 18.75 39.5 3
      vertex 25.5 39.5 3
      vertex 18.75 46 3
    endloop
  endfacet
  facet normal 0 0 1
    outer loop
      vertex 10 37.5 3
      vertex 25.5 39.5 3
      vertex 18.75 39.5 3
    endloop
  endfacet
  facet normal 0 0 1
    outer loop
      vertex 37.75 39.5 3
      vertex 10 37.5 3
      vertex 56 37.5 3
    endloop
  endfacet
  facet normal 0 0 1
    outer loop
      vertex 1 9 3
      vertex 10 10 3
      vertex 10 37.5 3
    endloop
  endfacet
  facet normal -0 0 1
    outer loop
      vertex 6.5 39.5 3
      vertex 10 37.5 3
      vertex 18.75 39.5 3
    endloop
  endfacet
  facet normal 0 0 1
    outer loop
      vertex 1 9 3
      vertex 10 37.5 3
      vertex 6.5 39.5 3
    endloop
  endfacet
  facet normal 0 0 1
    outer loop
      vertex 6.5 46 3
      vertex 1 9 3
      vertex 6.5 39.5 3
    endloop
  endfacet
  facet normal 0 0 1
    outer loop
      vertex 10 10 3
      vertex 1 9 3
      vertex 9 9 3
    endloop
  endfacet
  facet normal 0 0 1
    outer loop
      vertex 62 10.7 3
      vertex 59 10.7 3
      vertex 62 10 3
    endloop
  endfacet
  facet normal 0 0 1
    outer loop
      vertex 87 53.75 3
      vertex 74.25 39.5 3
      vertex 78 25.7 3
    endloop
  endfacet
  facet normal 0 0 1
    outer loop
      vertex 78 25.7 3
      vertex 74.25 39.5 3
      vertex 74.25 33 3
    endloop
  endfacet
  facet normal -0 0 1
    outer loop
      vertex 56.75 46 3
      vertex 74.25 39.5 3
      vertex 84.5 54.5 3
    endloop
  endfacet
  facet normal -0 0 1
    outer loop
      vertex 56 37.5 3
      vertex 62 33 3
      vertex 62 39.5 3
    endloop
  endfacet
  facet normal 0 -0 1
    outer loop
      vertex 59 25.7 3
      vertex 62 33 3
      vertex 56 37.5 3
    endloop
  endfacet
  facet normal 0 0 1
    outer loop
      vertex 62 33 3
      vertex 59 25.7 3
      vertex 62 26.3 3
    endloop
  endfacet
  facet normal 0 0 1
    outer loop
      vertex 56 37.5 3
      vertex 62 39.5 3
      vertex 56.75 39.5 3
    endloop
  endfacet
  facet normal 0 0 1
    outer loop
      vertex 56.75 39.5 3
      vertex 62 39.5 3
      vertex 56.75 46 3
    endloop
  endfacet
  facet normal 0 0 1
    outer loop
      vertex 74.25 39.5 3
      vertex 56.75 46 3
      vertex 62 39.5 3
    endloop
  endfacet
  facet normal -0 0 1
    outer loop
      vertex 53 54.5 3
      vertex 56.75 46 3
      vertex 84.5 54.5 3
    endloop
  endfacet
  facet normal 0 0 1
    outer loop
      vertex 53 85.2 3
      vertex 50.5 64 3
      vertex 53 54.5 3
    endloop
  endfacet
  facet normal 0 0 1
    outer loop
      vertex 53 54.5 3
      vertex 44.5 46 3
      vertex 56.75 46 3
    endloop
  endfacet
  facet normal -0 0 1
    outer loop
      vertex 43 64 3
      vertex 53 54.5 3
      vertex 50.5 64 3
    endloop
  endfacet
  facet normal 0 0 1
    outer loop
      vertex 44.5 46 3
      vertex 43 64 3
      vertex 44.5 39.5 3
    endloop
  endfacet
  facet normal 0 0 1
    outer loop
      vertex 53 54.5 3
      vertex 43 64 3
      vertex 44.5 46 3
    endloop
  endfacet
  facet normal 0 0 1
    outer loop
      vertex 78 25.7 3
      vertex 74.5 26.3 3
      vertex 74.5 25.7 3
    endloop
  endfacet
  facet normal 0 0 1
    outer loop
      vertex 78 25.7 3
      vertex 74.25 33 3
      vertex 74.5 26.3 3
    endloop
  endfacet
  facet normal 0 0 1
    outer loop
      vertex 74.25 33 3
      vertex 71.5 26.3 3
      vertex 74.5 26.3 3
    endloop
  endfacet
  facet normal 0 0 1
    outer loop
      vertex 71.5 26.3 3
      vertex 65 26.3 3
      vertex 71.5 10 3
    endloop
  endfacet
  facet normal 0 0 1
    outer loop
      vertex 74.25 33 3
      vertex 65 26.3 3
      vertex 71.5 26.3 3
    endloop
  endfacet
  facet normal -0 0 1
    outer loop
      vertex 62 33 3
      vertex 65 26.3 3
      vertex 74.25 33 3
    endloop
  endfacet
  facet normal 0 0 1
    outer loop
      vertex 65 26.3 3
      vertex 62 33 3
      vertex 62 26.3 3
    endloop
  endfacet
  facet normal 0 0 1
    outer loop
      vertex 113 10 3
      vertex 93.5 9.5 3
      vertex 105.75 9.5 3
    endloop
  endfacet
  facet normal 0 0 1
    outer loop
      vertex 93.5 9.5 3
      vertex 87 10 3
      vertex 93.5 3 3
    endloop
  endfacet
  facet normal -0 0 1
    outer loop
      vertex 87 10 3
      vertex 93.5 9.5 3
      vertex 113 10 3
    endloop
  endfacet
  facet normal -0 0 1
    outer loop
      vertex 88 58 3
      vertex 113 53.75 3
      vertex 118.25 58 3
    endloop
  endfacet
  facet normal 0 0 1
    outer loop
      vertex 113 53.75 3
      vertex 88 58 3
      vertex 87 53.75 3
    endloop
  endfacet
  facet normal 0 0 1
    outer loop
      vertex 118.25 58 3
      vertex 129 81 3
      vertex 121 81 3
    endloop
  endfacet
  facet normal 0 0 1
    outer loop
      vertex 129 81 3
      vertex 118.25 58 3
      vertex 129 9 3
    endloop
  endfacet
  facet normal 0 0 1
    outer loop
      vertex 129 81 3
      vertex 130 90 3
      vertex 129 89 3
    endloop
  endfacet
  facet normal 0 0 1
    outer loop
      vertex 130 90 3
      vertex 121 89 3
      vertex 129 89 3
    endloop
  endfacet
  facet normal -0 0 1
    outer loop
      vertex 118.25 88.75 3
      vertex 121 81 3
      vertex 121 89 3
    endloop
  endfacet
  facet normal -0 0 1
    outer loop
      vertex 113 53.75 3
      vertex 129 9 3
      vertex 118.25 58 3
    endloop
  endfacet
  facet normal 0 0 1
    outer loop
      vertex 121 81 3
      vertex 118.25 88.75 3
      vertex 118.25 58 3
    endloop
  endfacet
  facet normal 0 0 1
    outer loop
      vertex 130 90 3
      vertex 118.25 88.75 3
      vertex 121 89 3
    endloop
  endfacet
  facet normal 0 0 1
    outer loop
      vertex 130 90 3
      vertex 88 88.75 3
      vertex 118.25 88.75 3
    endloop
  endfacet
  facet normal -0 0 1
    outer loop
      vertex 84.5 85.2 3
      vertex 88 58 3
      vertex 88 88.75 3
    endloop
  endfacet
  facet normal 0 0 1
    outer loop
      vertex 88 58 3
      vertex 84.5 54.5 3
      vertex 87 53.75 3
    endloop
  endfacet
  facet normal 0 0 1
    outer loop
      vertex 84.5 54.5 3
      vertex 88 58 3
      vertex 84.5 85.2 3
    endloop
  endfacet
  facet normal 0 0 1
    outer loop
      vertex 88 88.75 3
      vertex 53 85.2 3
      vertex 84.5 85.2 3
    endloop
  endfacet
  facet normal 0 0 1
    outer loop
      vertex 50.5 64 3
      vertex 53 85.2 3
      vertex 50.5 76.25 3
    endloop
  endfacet
  facet normal -0 0 1
    outer loop
      vertex 41 84 3
      vertex 50.5 76.25 3
      vertex 53 85.2 3
    endloop
  endfacet
  facet normal 0 0 1
    outer loop
      vertex 43 76.25 3
      vertex 41 84 3
      vertex 43 64 3
    endloop
  endfacet
  facet normal 0 0 1
    outer loop
      vertex 50.5 76.25 3
      vertex 41 84 3
      vertex 43 76.25 3
    endloop
  endfacet
  facet normal 0 0 1
    outer loop
      vertex 9 89 3
      vertex 53 85.2 3
      vertex 88 88.75 3
    endloop
  endfacet
  facet normal 0 0 1
    outer loop
      vertex 53 85.2 3
      vertex 9 89 3
      vertex 41 84 3
    endloop
  endfacet
  facet normal 0 0 1
    outer loop
      vertex 9 81 3
      vertex 10 84 3
      vertex 9 89 3
    endloop
  endfacet
  facet normal 0 0 1
    outer loop
      vertex 41 84 3
      vertex 9 89 3
      vertex 10 84 3
    endloop
  endfacet
  facet normal -0 0 1
    outer loop
      vertex 0 90 3
      vertex 88 88.75 3
      vertex 130 90 3
    endloop
  endfacet
  facet normal 0 0 1
    outer loop
      vertex 88 88.75 3
      vertex 0 90 3
      vertex 9 89 3
    endloop
  endfacet
  facet normal 0 0 1
    outer loop
      vertex 0 90 3
      vertex 1 81 3
      vertex 1 89 3
    endloop
  endfacet
  facet normal 0 0 1
    outer loop
      vertex 1 81 3
      vertex 0 90 3
      vertex 1 9 3
    endloop
  endfacet
  facet normal 0 0 1
    outer loop
      vertex 0 0 3
      vertex 1 9 3
      vertex 0 90 3
    endloop
  endfacet
  facet normal 0 0 1
    outer loop
      vertex 9 89 3
      vertex 0 90 3
      vertex 1 89 3
    endloop
  endfacet
  facet normal 0 0 1
    outer loop
      vertex 130 90 3
      vertex 129 81 3
      vertex 130 0 3
    endloop
  endfacet
  facet normal -0 0 1
    outer loop
      vertex 129 9 3
      vertex 130 0 3
      vertex 129 81 3
    endloop
  endfacet
  facet normal -0 0 1
    outer loop
      vertex 129 1 3
      vertex 130 0 3
      vertex 129 9 3
    endloop
  endfacet
  facet normal -0 0 1
    outer loop
      vertex 121 1 3
      vertex 130 0 3
      vertex 129 1 3
    endloop
  endfacet
  facet normal 0 0 1
    outer loop
      vertex 129 9 3
      vertex 113 53.75 3
      vertex 121 9 3
    endloop
  endfacet
  facet normal 0 0 1
    outer loop
      vertex 121 9 3
      vertex 113 53.75 3
      vertex 113 10 3
    endloop
  endfacet
  facet normal 0 0 1
    outer loop
      vertex 121 9 3
      vertex 113 10 3
      vertex 121 1 3
    endloop
  endfacet
  facet normal 0 0 1
    outer loop
      vertex 105.75 3 3
      vertex 113 10 3
      vertex 105.75 9.5 3
    endloop
  endfacet
  facet normal 0 0 1
    outer loop
      vertex 113 10 3
      vertex 105.75 3 3
      vertex 121 1 3
    endloop
  endfacet
  facet normal -0 0 1
    outer loop
      vertex 93.5 3 3
      vertex 121 1 3
      vertex 105.75 3 3
    endloop
  endfacet
  facet normal 0 0 1
    outer loop
      vertex 93.5 3 3
      vertex 130 0 3
      vertex 121 1 3
    endloop
  endfacet
  facet normal 0 0 1
    outer loop
      vertex 74.25 39.5 3
      vertex 87 53.75 3
      vertex 84.5 54.5 3
    endloop
  endfacet
  facet normal 0 0 1
    outer loop
      vertex 87 53.75 3
      vertex 78 25.7 3
      vertex 87 10 3
    endloop
  endfacet
  facet normal -0 0 1
    outer loop
      vertex 78 10.7 3
      vertex 87 10 3
      vertex 78 25.7 3
    endloop
  endfacet
  facet normal 0 0 1
    outer loop
      vertex 78 10.7 3
      vertex 93.5 3 3
      vertex 87 10 3
    endloop
  endfacet
  facet normal 0 0 1
    outer loop
      vertex 74.5 10 3
      vertex 78 10.7 3
      vertex 74.5 10.7 3
    endloop
  endfacet
  facet normal 0 0 1
    outer loop
      vertex 78 10.7 3
      vertex 74.5 10 3
      vertex 93.5 3 3
    endloop
  endfacet
  facet normal -0 0 1
    outer loop
      vertex 71.5 10 3
      vertex 93.5 3 3
      vertex 74.5 10 3
    endloop
  endfacet
  facet normal 0 0 1
    outer loop
      vertex 65 10 3
      vertex 71.5 10 3
      vertex 65 26.3 3
    endloop
  endfacet
  facet normal 0 0 1
    outer loop
      vertex 51.75 3 3
      vertex 71.5 10 3
      vertex 65 10 3
    endloop
  endfacet
  facet normal 0 0 1
    outer loop
      vertex 51.75 3 3
      vertex 65 10 3
      vertex 62 10 3
    endloop
  endfacet
  facet normal 0 0 1
    outer loop
      vertex 62 26.3 3
      vertex 59 25.7 3
      vertex 62 25.7 3
    endloop
  endfacet
  facet normal 0 0 1
    outer loop
      vertex 56 10 3
      vertex 59 25.7 3
      vertex 56 37.5 3
    endloop
  endfacet
  facet normal 0 0 1
    outer loop
      vertex 59 25.7 3
      vertex 56 10 3
      vertex 59 10.7 3
    endloop
  endfacet
  facet normal 0 0 1
    outer loop
      vertex 56 10 3
      vertex 62 10 3
      vertex 59 10.7 3
    endloop
  endfacet
  facet normal 0 0 1
    outer loop
      vertex 51.75 3 3
      vertex 62 10 3
      vertex 56 10 3
    endloop
  endfacet
  facet normal 0 0 1
    outer loop
      vertex 51.75 3 3
      vertex 56 10 3
      vertex 51.75 9.5 3
    endloop
  endfacet
  facet normal 0 0 1
    outer loop
      vertex 71.5 10 3
      vertex 51.75 3 3
      vertex 93.5 3 3
    endloop
  endfacet
  facet normal -0 0 1
    outer loop
      vertex 51.75 3 3
      vertex 130 0 3
      vertex 93.5 3 3
    endloop
  endfacet
  facet normal 0 0 1
    outer loop
      vertex 9 1 3
      vertex 51.75 3 3
      vertex 39.5 3 3
    endloop
  endfacet
  facet normal 0 0 1
    outer loop
      vertex 26.75 3 3
      vertex 39.5 3 3
      vertex 26.75 9.5 3
    endloop
  endfacet
  facet normal 0 0 1
    outer loop
      vertex 9 1 3
      vertex 39.5 3 3
      vertex 26.75 3 3
    endloop
  endfacet
  facet normal 0 0 1
    outer loop
      vertex 9 1 3
      vertex 26.75 3 3
      vertex 14.5 3 3
    endloop
  endfacet
  facet normal 0 0 1
    outer loop
      vertex 14.5 9.5 3
      vertex 9 9 3
      vertex 14.5 3 3
    endloop
  endfacet
  facet normal 0 0 1
    outer loop
      vertex 9 1 3
      vertex 14.5 3 3
      vertex 9 9 3
    endloop
  endfacet
  facet normal 0 0 1
    outer loop
      vertex 51.75 3 3
      vertex 9 1 3
      vertex 0 0 3
    endloop
  endfacet
  facet normal 0 0 1
    outer loop
      vertex 0 0 3
      vertex 9 1 3
      vertex 1 1 3
    endloop
  endfacet
  facet normal 0 0 1
    outer loop
      vertex 51.75 3 3
      vertex 0 0 3
      vertex 130 0 3
    endloop
  endfacet
  facet normal 0 0 1
    outer loop
      vertex 1 9 3
      vertex 0 0 3
      vertex 1 1 3
    endloop
  endfacet
  facet normal 0 1 -0
    outer loop
      vertex 40 49 3
      vertex 11 49 7
      vertex 40 49 7
    endloop
  endfacet
  facet normal 0 1 0
    outer loop
      vertex 11 49 7
      vertex 40 49 3
      vertex 11 49 3
    endloop
  endfacet
  facet normal -1 0 0
    outer loop
      vertex 53 54.5 3
      vertex 53 85.2 7
      vertex 53 85.2 3
    endloop
  endfacet
  facet normal -1 -0 0
    outer loop
      vertex 53 85.2 7
      vertex 53 54.5 3
      vertex 53 54.5 7
    endloop
  endfacet
  facet normal 0 0 1
    outer loop
      vertex 84.5 85.2 7
      vertex 83.5 84.2 7
      vertex 84.5 54.5 7
    endloop
  endfacet
  facet normal 0 0 1
    outer loop
      vertex 84.5 85.2 7
      vertex 54 84.2 7
      vertex 83.5 84.2 7
    endloop
  endfacet
  facet normal 0 0 1
    outer loop
      vertex 54 84.2 7
      vertex 53 85.2 7
      vertex 54 55.5 7
    endloop
  endfacet
  facet normal -0 0 1
    outer loop
      vertex 53 85.2 7
      vertex 54 84.2 7
      vertex 84.5 85.2 7
    endloop
  endfacet
  facet normal -0 0 1
    outer loop
      vertex 83.5 55.5 7
      vertex 84.5 54.5 7
      vertex 83.5 84.2 7
    endloop
  endfacet
  facet normal -0 0 1
    outer loop
      vertex 54 55.5 7
      vertex 84.5 54.5 7
      vertex 83.5 55.5 7
    endloop
  endfacet
  facet normal 0 0 1
    outer loop
      vertex 54 55.5 7
      vertex 53 54.5 7
      vertex 84.5 54.5 7
    endloop
  endfacet
  facet normal 0 0 1
    outer loop
      vertex 53 54.5 7
      vertex 54 55.5 7
      vertex 53 85.2 7
    endloop
  endfacet
  facet normal 1 -0 0
    outer loop
      vertex 84.5 54.5 7
      vertex 84.5 85.2 3
      vertex 84.5 85.2 7
    endloop
  endfacet
  facet normal 1 0 0
    outer loop
      vertex 84.5 85.2 3
      vertex 84.5 54.5 7
      vertex 84.5 54.5 3
    endloop
  endfacet
  facet normal 0 1 -0
    outer loop
      vertex 84.5 85.2 3
      vertex 53 85.2 7
      vertex 84.5 85.2 7
    endloop
  endfacet
  facet normal 0 1 0
    outer loop
      vertex 53 85.2 7
      vertex 84.5 85.2 3
      vertex 53 85.2 3
    endloop
  endfacet
  facet normal 0 -1 0
    outer loop
      vertex 53 54.5 3
      vertex 84.5 54.5 7
      vertex 53 54.5 7
    endloop
  endfacet
  facet normal 0 -1 -0
    outer loop
      vertex 84.5 54.5 7
      vertex 53 54.5 3
      vertex 84.5 54.5 3
    endloop
  endfacet
  facet normal 1 -0 0
    outer loop
      vertex 54 55.5 7
      vertex 54 84.2 3
      vertex 54 84.2 7
    endloop
  endfacet
  facet normal 1 0 0
    outer loop
      vertex 54 84.2 3
      vertex 54 55.5 7
      vertex 54 55.5 3
    endloop
  endfacet
  facet normal -1 0 0
    outer loop
      vertex 83.5 55.5 3
      vertex 83.5 84.2 7
      vertex 83.5 84.2 3
    endloop
  endfacet
  facet normal -1 -0 0
    outer loop
      vertex 83.5 84.2 7
      vertex 83.5 55.5 3
      vertex 83.5 55.5 7
    endloop
  endfacet
  facet normal 0 -1 0
    outer loop
      vertex 54 84.2 3
      vertex 83.5 84.2 7
      vertex 54 84.2 7
    endloop
  endfacet
  facet normal 0 -1 -0
    outer loop
      vertex 83.5 84.2 7
      vertex 54 84.2 3
      vertex 83.5 84.2 3
    endloop
  endfacet
  facet normal 0 1 -0
    outer loop
      vertex 83.5 55.5 3
      vertex 54 55.5 7
      vertex 83.5 55.5 7
    endloop
  endfacet
  facet normal 0 1 0
    outer loop
      vertex 54 55.5 7
      vertex 83.5 55.5 3
      vertex 54 55.5 3
    endloop
  endfacet
  facet normal -1 0 0
    outer loop
      vertex 88 58 3
      vertex 88 88.75 7
      vertex 88 88.75 3
    endloop
  endfacet
  facet normal -1 -0 0
    outer loop
      vertex 88 88.75 7
      vertex 88 58 3
      vertex 88 58 7
    endloop
  endfacet
  facet normal 0 0 1
    outer loop
      vertex 118.25 88.75 7
      vertex 117.25 87.75 7
      vertex 118.25 58 7
    endloop
  endfacet
  facet normal 0 0 1
    outer loop
      vertex 118.25 88.75 7
      vertex 89 87.75 7
      vertex 117.25 87.75 7
    endloop
  endfacet
  facet normal 0 0 1
    outer loop
      vertex 89 87.75 7
      vertex 88 88.75 7
      vertex 89 59 7
    endloop
  endfacet
  facet normal -0 0 1
    outer loop
      vertex 88 88.75 7
      vertex 89 87.75 7
      vertex 118.25 88.75 7
    endloop
  endfacet
  facet normal -0 0 1
    outer loop
      vertex 117.25 59 7
      vertex 118.25 58 7
      vertex 117.25 87.75 7
    endloop
  endfacet
  facet normal -0 0 1
    outer loop
      vertex 89 59 7
      vertex 118.25 58 7
      vertex 117.25 59 7
    endloop
  endfacet
  facet normal 0 0 1
    outer loop
      vertex 89 59 7
      vertex 88 58 7
      vertex 118.25 58 7
    endloop
  endfacet
  facet normal 0 0 1
    outer loop
      vertex 88 58 7
      vertex 89 59 7
      vertex 88 88.75 7
    endloop
  endfacet
  facet normal 1 -0 0
    outer loop
      vertex 118.25 58 7
      vertex 118.25 88.75 3
      vertex 118.25 88.75 7
    endloop
  endfacet
  facet normal 1 0 0
    outer loop
      vertex 118.25 88.75 3
      vertex 118.25 58 7
      vertex 118.25 58 3
    endloop
  endfacet
  facet normal 0 1 -0
    outer loop
      vertex 118.25 88.75 3
      vertex 88 88.75 7
      vertex 118.25 88.75 7
    endloop
  endfacet
  facet normal 0 1 0
    outer loop
      vertex 88 88.75 7
      vertex 118.25 88.75 3
      vertex 88 88.75 3
    endloop
  endfacet
  facet normal 0 -1 0
    outer loop
      vertex 88 58 3
      vertex 118.25 58 7
      vertex 88 58 7
    endloop
  endfacet
  facet normal 0 -1 -0
    outer loop
      vertex 118.25 58 7
      vertex 88 58 3
      vertex 118.25 58 3
    endloop
  endfacet
  facet normal 1 -0 0
    outer loop
      vertex 89 59 7
      vertex 89 87.75 3
      vertex 89 87.75 7
    endloop
  endfacet
  facet normal 1 0 0
    outer loop
      vertex 89 87.75 3
      vertex 89 59 7
      vertex 89 59 3
    endloop
  endfacet
  facet normal -1 0 0
    outer loop
      vertex 117.25 59 3
      vertex 117.25 87.75 7
      vertex 117.25 87.75 3
    endloop
  endfacet
  facet normal -1 -0 0
    outer loop
      vertex 117.25 87.75 7
      vertex 117.25 59 3
      vertex 117.25 59 7
    endloop
  endfacet
  facet normal 0 -1 0
    outer loop
      vertex 89 87.75 3
      vertex 117.25 87.75 7
      vertex 89 87.75 7
    endloop
  endfacet
  facet normal 0 -1 -0
    outer loop
      vertex 117.25 87.75 7
      vertex 89 87.75 3
      vertex 117.25 87.75 3
    endloop
  endfacet
  facet normal 0 1 -0
    outer loop
      vertex 117.25 59 3
      vertex 89 59 7
      vertex 117.25 59 7
    endloop
  endfacet
  facet normal 0 1 0
    outer loop
      vertex 89 59 7
      vertex 117.25 59 3
      vertex 89 59 3
    endloop
  endfacet
  facet normal -1 0 0
    outer loop
      vertex 10 10 3
      vertex 10 37.5 7
      vertex 10 37.5 3
    endloop
  endfacet
  facet normal -1 -0 0
    outer loop
      vertex 10 37.5 7
      vertex 10 10 3
      vertex 10 10 7
    endloop
  endfacet
  facet normal 0 0 1
    outer loop
      vertex 56 37.5 7
      vertex 55 36.5 7
      vertex 56 10 7
    endloop
  endfacet
  facet normal 0 0 1
    outer loop
      vertex 56 37.5 7
      vertex 11 36.5 7
      vertex 55 36.5 7
    endloop
  endfacet
  facet normal 0 0 1
    outer loop
      vertex 11 36.5 7
      vertex 10 37.5 7
      vertex 11 11 7
    endloop
  endfacet
  facet normal -0 0 1
    outer loop
      vertex 10 37.5 7
      vertex 11 36.5 7
      vertex 56 37.5 7
    endloop
  endfacet
  facet normal -0 0 1
    outer loop
      vertex 55 11 7
      vertex 56 10 7
      vertex 55 36.5 7
    endloop
  endfacet
  facet normal -0 0 1
    outer loop
      vertex 11 11 7
      vertex 56 10 7
      vertex 55 11 7
    endloop
  endfacet
  facet normal 0 0 1
    outer loop
      vertex 11 11 7
      vertex 10 10 7
      vertex 56 10 7
    endloop
  endfacet
  facet normal 0 0 1
    outer loop
      vertex 10 10 7
      vertex 11 11 7
      vertex 10 37.5 7
    endloop
  endfacet
  facet normal 1 -0 0
    outer loop
      vertex 56 10 7
      vertex 56 37.5 3
      vertex 56 37.5 7
    endloop
  endfacet
  facet normal 1 0 0
    outer loop
      vertex 56 37.5 3
      vertex 56 10 7
      vertex 56 10 3
    endloop
  endfacet
  facet normal 0 1 -0
    outer loop
      vertex 56 37.5 3
      vertex 10 37.5 7
      vertex 56 37.5 7
    endloop
  endfacet
  facet normal 0 1 0
    outer loop
      vertex 10 37.5 7
      vertex 56 37.5 3
      vertex 10 37.5 3
    endloop
  endfacet
  facet normal 0 -1 0
    outer loop
      vertex 10 10 3
      vertex 56 10 7
      vertex 10 10 7
    endloop
  endfacet
  facet normal 0 -1 -0
    outer loop
      vertex 56 10 7
      vertex 10 10 3
      vertex 56 10 3
    endloop
  endfacet
  facet normal 1 -0 0
    outer loop
      vertex 11 11 7
      vertex 11 36.5 3
      vertex 11 36.5 7
    endloop
  endfacet
  facet normal 1 0 0
    outer loop
      vertex 11 36.5 3
      vertex 11 11 7
      vertex 11 11 3
    endloop
  endfacet
  facet normal -1 0 0
    outer loop
      vertex 55 11 3
      vertex 55 36.5 7
      vertex 55 36.5 3
    endloop
  endfacet
  facet normal -1 -0 0
    outer loop
      vertex 55 36.5 7
      vertex 55 11 3
      vertex 55 11 7
    endloop
  endfacet
  facet normal 0 -1 0
    outer loop
      vertex 11 36.5 3
      vertex 55 36.5 7
      vertex 11 36.5 7
    endloop
  endfacet
  facet normal 0 -1 -0
    outer loop
      vertex 55 36.5 7
      vertex 11 36.5 3
      vertex 55 36.5 3
    endloop
  endfacet
  facet normal 0 1 -0
    outer loop
      vertex 55 11 3
      vertex 11 11 7
      vertex 55 11 7
    endloop
  endfacet
  facet normal 0 1 0
    outer loop
      vertex 11 11 7
      vertex 55 11 3
      vertex 11 11 3
    endloop
  endfacet
  facet normal -1 0 0
    outer loop
      vertex 87 10 3
      vertex 87 53.75 7
      vertex 87 53.75 3
    endloop
  endfacet
  facet normal -1 -0 0
    outer loop
      vertex 87 53.75 7
      vertex 87 10 3
      vertex 87 10 7
    endloop
  endfacet
  facet normal 0 0 1
    outer loop
      vertex 113 53.75 7
      vertex 112 52.75 7
      vertex 113 10 7
    endloop
  endfacet
  facet normal 0 0 1
    outer loop
      vertex 113 53.75 7
      vertex 88 52.75 7
      vertex 112 52.75 7
    endloop
  endfacet
  facet normal 0 0 1
    outer loop
      vertex 88 52.75 7
      vertex 87 53.75 7
      vertex 88 11 7
    endloop
  endfacet
  facet normal -0 0 1
    outer loop
      vertex 87 53.75 7
      vertex 88 52.75 7
      vertex 113 53.75 7
    endloop
  endfacet
  facet normal -0 0 1
    outer loop
      vertex 112 11 7
      vertex 113 10 7
      vertex 112 52.75 7
    endloop
  endfacet
  facet normal -0 0 1
    outer loop
      vertex 88 11 7
      vertex 113 10 7
      vertex 112 11 7
    endloop
  endfacet
  facet normal 0 0 1
    outer loop
      vertex 88 11 7
      vertex 87 10 7
      vertex 113 10 7
    endloop
  endfacet
  facet normal 0 0 1
    outer loop
      vertex 87 10 7
      vertex 88 11 7
      vertex 87 53.75 7
    endloop
  endfacet
  facet normal 1 -0 0
    outer loop
      vertex 113 10 7
      vertex 113 53.75 3
      vertex 113 53.75 7
    endloop
  endfacet
  facet normal 1 0 0
    outer loop
      vertex 113 53.75 3
      vertex 113 10 7
      vertex 113 10 3
    endloop
  endfacet
  facet normal 0 1 -0
    outer loop
      vertex 113 53.75 3
      vertex 87 53.75 7
      vertex 113 53.75 7
    endloop
  endfacet
  facet normal 0 1 0
    outer loop
      vertex 87 53.75 7
      vertex 113 53.75 3
      vertex 87 53.75 3
    endloop
  endfacet
  facet normal 0 -1 0
    outer loop
      vertex 87 10 3
      vertex 113 10 7
      vertex 87 10 7
    endloop
  endfacet
  facet normal 0 -1 -0
    outer loop
      vertex 113 10 7
      vertex 87 10 3
      vertex 113 10 3
    endloop
  endfacet
  facet normal 1 -0 0
    outer loop
      vertex 88 11 7
      vertex 88 52.75 3
      vertex 88 52.75 7
    endloop
  endfacet
  facet normal 1 0 0
    outer loop
      vertex 88 52.75 3
      vertex 88 11 7
      vertex 88 11 3
    endloop
  endfacet
  facet normal -1 0 0
    outer loop
      vertex 112 11 3
      vertex 112 52.75 7
      vertex 112 52.75 3
    endloop
  endfacet
  facet normal -1 -0 0
    outer loop
      vertex 112 52.75 7
      vertex 112 11 3
      vertex 112 11 7
    endloop
  endfacet
  facet normal 0 -1 0
    outer loop
      vertex 88 52.75 3
      vertex 112 52.75 7
      vertex 88 52.75 7
    endloop
  endfacet
  facet normal 0 -1 -0
    outer loop
      vertex 112 52.75 7
      vertex 88 52.75 3
      vertex 112 52.75 3
    endloop
  endfacet
  facet normal 0 1 -0
    outer loop
      vertex 112 11 3
      vertex 88 11 7
      vertex 112 11 7
    endloop
  endfacet
  facet normal 0 1 0
    outer loop
      vertex 88 11 7
      vertex 112 11 3
      vertex 88 11 3
    endloop
  endfacet
  facet normal -1 0 0
    outer loop
      vertex 62 10.7 3
      vertex 62 10 3
      vertex 62 10.7 6.92893
    endloop
  endfacet
  facet normal -1 0 0
    outer loop
      vertex 62 25.7 6.92893
      vertex 62 26.3 3
      vertex 62 25.7 3
    endloop
  endfacet
  facet normal -1 0 0
    outer loop
      vertex 62 26.3 3
      vertex 62 25.7 6.92893
      vertex 62 26.3 15
    endloop
  endfacet
  facet normal -1 0 0
    outer loop
      vertex 62 10.7 6.92893
      vertex 62 26.3 15
      vertex 62 25.7 6.92893
    endloop
  endfacet
  facet normal -1 0 0
    outer loop
      vertex 62 10.7 6.92893
      vertex 62 10 15
      vertex 62 26.3 15
    endloop
  endfacet
  facet normal -1 0 0
    outer loop
      vertex 62 10 15
      vertex 62 10.7 6.92893
      vertex 62 10 3
    endloop
  endfacet
  facet normal -0 0 1
    outer loop
      vertex 62 26.3 15
      vertex 65 10 15
      vertex 65 26.3 15
    endloop
  endfacet
  facet normal 0 0 1
    outer loop
      vertex 65 10 15
      vertex 62 26.3 15
      vertex 62 10 15
    endloop
  endfacet
  facet normal -0 0 1
    outer loop
      vertex 71.5 26.3 15
      vertex 74.5 10 15
      vertex 74.5 26.3 15
    endloop
  endfacet
  facet normal 0 0 1
    outer loop
      vertex 74.5 10 15
      vertex 71.5 26.3 15
      vertex 71.5 10 15
    endloop
  endfacet
  facet normal 1 0 0
    outer loop
      vertex 74.5 26.3 15
      vertex 74.5 25.7 6.7
      vertex 74.5 26.3 3
    endloop
  endfacet
  facet normal 1 0 0
    outer loop
      vertex 74.5 26.3 15
      vertex 74.5 10.7 6.7
      vertex 74.5 25.7 6.7
    endloop
  endfacet
  facet normal 1 -0 0
    outer loop
      vertex 74.5 10 15
      vertex 74.5 10.7 6.7
      vertex 74.5 26.3 15
    endloop
  endfacet
  facet normal 1 0 0
    outer loop
      vertex 74.5 10 3
      vertex 74.5 10.7 6.7
      vertex 74.5 10 15
    endloop
  endfacet
  facet normal 1 0 0
    outer loop
      vertex 74.5 10.7 6.7
      vertex 74.5 10 3
      vertex 74.5 10.7 3
    endloop
  endfacet
  facet normal 1 0 0
    outer loop
      vertex 74.5 26.3 3
      vertex 74.5 25.7 6.7
      vertex 74.5 25.7 3
    endloop
  endfacet
  facet normal 0 1 -0
    outer loop
      vertex 74.5 26.3 3
      vertex 71.5 26.3 15
      vertex 74.5 26.3 15
    endloop
  endfacet
  facet normal 0 1 0
    outer loop
      vertex 71.5 26.3 15
      vertex 74.5 26.3 3
      vertex 71.5 26.3 3
    endloop
  endfacet
  facet normal 0 1 -0
    outer loop
      vertex 65 26.3 3
      vertex 62 26.3 15
      vertex 65 26.3 15
    endloop
  endfacet
  facet normal 0 1 0
    outer loop
      vertex 62 26.3 15
      vertex 65 26.3 3
      vertex 62 26.3 3
    endloop
  endfacet
  facet normal 0 -1 0
    outer loop
      vertex 62 10 3
      vertex 65 10 15
      vertex 62 10 15
    endloop
  endfacet
  facet normal 0 -1 -0
    outer loop
      vertex 65 10 15
      vertex 62 10 3
      vertex 65 10 3
    endloop
  endfacet
  facet normal 0 -1 0
    outer loop
      vertex 71.5 10 3
      vertex 74.5 10 15
      vertex 71.5 10 15
    endloop
  endfacet
  facet normal 0 -1 -0
    outer loop
      vertex 74.5 10 15
      vertex 71.5 10 3
      vertex 74.5 10 3
    endloop
  endfacet
  facet normal 1 -0 0
    outer loop
      vertex 65 10 15
      vertex 65 26.3 3
      vertex 65 26.3 15
    endloop
  endfacet
  facet normal 1 0 0
    outer loop
      vertex 65 26.3 3
      vertex 65 10 15
      vertex 65 10 3
    endloop
  endfacet
  facet normal -1 0 0
    outer loop
      vertex 71.5 10 3
      vertex 71.5 26.3 15
      vertex 71.5 26.3 3
    endloop
  endfacet
  facet normal -1 -0 0
    outer loop
      vertex 71.5 26.3 15
      vertex 71.5 10 3
      vertex 71.5 10 15
    endloop
  endfacet
  facet normal 1 -0 0
    outer loop
      vertex 78 10.7 3.2
      vertex 78 25.7 3
      vertex 78 25.7 3.2
    endloop
  endfacet
  facet normal 1 0 0
    outer loop
      vertex 78 25.7 3
      vertex 78 10.7 3.2
      vertex 78 10.7 3
    endloop
  endfacet
  facet normal 0 1 0
    outer loop
      vertex 74.5 25.7 3
      vertex 78 25.7 3.2
      vertex 78 25.7 3
    endloop
  endfacet
  facet normal 0 1 0
    outer loop
      vertex 78 25.7 3.2
      vertex 74.5 25.7 3
      vertex 74.5 25.7 6.7
    endloop
  endfacet
  facet normal 0 -1 0
    outer loop
      vertex 74.5 10.7 3
      vertex 78 10.7 3.2
      vertex 74.5 10.7 6.7
    endloop
  endfacet
  facet normal 0 -1 -0
    outer loop
      vertex 78 10.7 3.2
      vertex 74.5 10.7 3
      vertex 78 10.7 3
    endloop
  endfacet
  facet normal -1 0 0
    outer loop
      vertex 59 10.7 3
      vertex 59 25.7 3.92893
      vertex 59 25.7 3
    endloop
  endfacet
  facet normal -1 -0 0
    outer loop
      vertex 59 25.7 3.92893
      vertex 59 10.7 3
      vertex 59 10.7 3.92893
    endloop
  endfacet
  facet normal 0 1 -0
    outer loop
      vertex 62 25.7 3
      vertex 59 25.7 3.92893
      vertex 62 25.7 6.92893
    endloop
  endfacet
  facet normal 0 1 0
    outer loop
      vertex 59 25.7 3.92893
      vertex 62 25.7 3
      vertex 59 25.7 3
    endloop
  endfacet
  facet normal 0 -1 0
    outer loop
      vertex 62 10.7 3
      vertex 59 10.7 3.92893
      vertex 59 10.7 3
    endloop
  endfacet
  facet normal 0 -1 0
    outer loop
      vertex 59 10.7 3.92893
      vertex 62 10.7 3
      vertex 62 10.7 6.92893
    endloop
  endfacet
  facet normal 0.707107 0 0.707107
    outer loop
      vertex 74.5 25.7 6.7
      vertex 78 10.7 3.2
      vertex 78 25.7 3.2
    endloop
  endfacet
  facet normal 0.707107 0 0.707107
    outer loop
      vertex 78 10.7 3.2
      vertex 74.5 25.7 6.7
      vertex 74.5 10.7 6.7
    endloop
  endfacet
  facet normal -0.707107 0 0.707107
    outer loop
      vertex 59 10.7 3.92893
      vertex 62 25.7 6.92893
      vertex 59 25.7 3.92893
    endloop
  endfacet
  facet normal -0.707107 0 0.707107
    outer loop
      vertex 62 25.7 6.92893
      vertex 59 10.7 3.92893
      vertex 62 10.7 6.92893
    endloop
  endfacet
  facet normal -1 0 0
    outer loop
      vertex 0 0 0
      vertex 0 90 3
      vertex 0 90 0
    endloop
  endfacet
  facet normal -1 -0 0
    outer loop
      vertex 0 90 3
      vertex 0 0 0
      vertex 0 0 3
    endloop
  endfacet
  facet normal 1 -0 0
    outer loop
      vertex 130 0 3
      vertex 130 90 0
      vertex 130 90 3
    endloop
  endfacet
  facet normal 1 0 0
    outer loop
      vertex 130 90 0
      vertex 130 0 3
      vertex 130 0 0
    endloop
  endfacet
  facet normal 0 1 -0
    outer loop
      vertex 130 90 0
      vertex 0 90 3
      vertex 130 90 3
    endloop
  endfacet
  facet normal 0 1 0
    outer loop
      vertex 0 90 3
      vertex 130 90 0
      vertex 0 90 0
    endloop
  endfacet
  facet normal 0 -1 0
    outer loop
      vertex 0 0 0
      vertex 130 0 3
      vertex 0 0 3
    endloop
  endfacet
  facet normal 0 -1 -0
    outer loop
      vertex 130 0 3
      vertex 0 0 0
      vertex 130 0 0
    endloop
  endfacet
  facet normal -1 0 0
    outer loop
      vertex 1 1 3
      vertex 1 9 8
      vertex 1 9 3
    endloop
  endfacet
  facet normal -1 -0 0
    outer loop
      vertex 1 9 8
      vertex 1 1 3
      vertex 1 1 8
    endloop
  endfacet
  facet normal 0 0 1
    outer loop
      vertex 8.125 2 8
      vertex 9 9 8
      vertex 8.125 8.125 8
    endloop
  endfacet
  facet normal 0 0 1
    outer loop
      vertex 9 9 8
      vertex 2 8.125 8
      vertex 8.125 8.125 8
    endloop
  endfacet
  facet normal 0 0 1
    outer loop
      vertex 2 8.125 8
      vertex 1 9 8
      vertex 2 2 8
    endloop
  endfacet
  facet normal -0 0 1
    outer loop
      vertex 1 9 8
      vertex 2 8.125 8
      vertex 9 9 8
    endloop
  endfacet
  facet normal 0 0 1
    outer loop
      vertex 9 9 8
      vertex 8.125 2 8
      vertex 9 1 8
    endloop
  endfacet
  facet normal -0 0 1
    outer loop
      vertex 2 2 8
      vertex 9 1 8
      vertex 8.125 2 8
    endloop
  endfacet
  facet normal 0 0 1
    outer loop
      vertex 2 2 8
      vertex 1 1 8
      vertex 9 1 8
    endloop
  endfacet
  facet normal 0 0 1
    outer loop
      vertex 1 1 8
      vertex 2 2 8
      vertex 1 9 8
    endloop
  endfacet
  facet normal 1 -0 0
    outer loop
      vertex 9 1 8
      vertex 9 9 3
      vertex 9 9 8
    endloop
  endfacet
  facet normal 1 0 0
    outer loop
      vertex 9 9 3
      vertex 9 1 8
      vertex 9 1 3
    endloop
  endfacet
  facet normal 0 1 -0
    outer loop
      vertex 9 9 3
      vertex 1 9 8
      vertex 9 9 8
    endloop
  endfacet
  facet normal 0 1 0
    outer loop
      vertex 1 9 8
      vertex 9 9 3
      vertex 1 9 3
    endloop
  endfacet
  facet normal 0 -1 0
    outer loop
      vertex 1 1 3
      vertex 9 1 8
      vertex 1 1 8
    endloop
  endfacet
  facet normal 0 -1 -0
    outer loop
      vertex 9 1 8
      vertex 1 1 3
      vertex 9 1 3
    endloop
  endfacet
  facet normal -1 0 0
    outer loop
      vertex 121 1 3
      vertex 121 9 8
      vertex 121 9 3
    endloop
  endfacet
  facet normal -1 -0 0
    outer loop
      vertex 121 9 8
      vertex 121 1 3
      vertex 121 1 8
    endloop
  endfacet
  facet normal 0 0 1
    outer loop
      vertex 128.125 2 8
      vertex 129 9 8
      vertex 128.125 8.125 8
    endloop
  endfacet
  facet normal 0 0 1
    outer loop
      vertex 129 9 8
      vertex 122 8.125 8
      vertex 128.125 8.125 8
    endloop
  endfacet
  facet normal 0 0 1
    outer loop
      vertex 122 8.125 8
      vertex 121 9 8
      vertex 122 2 8
    endloop
  endfacet
  facet normal -0 0 1
    outer loop
      vertex 121 9 8
      vertex 122 8.125 8
      vertex 129 9 8
    endloop
  endfacet
  facet normal 0 0 1
    outer loop
      vertex 129 9 8
      vertex 128.125 2 8
      vertex 129 1 8
    endloop
  endfacet
  facet normal -0 0 1
    outer loop
      vertex 122 2 8
      vertex 129 1 8
      vertex 128.125 2 8
    endloop
  endfacet
  facet normal 0 0 1
    outer loop
      vertex 122 2 8
      vertex 121 1 8
      vertex 129 1 8
    endloop
  endfacet
  facet normal 0 0 1
    outer loop
      vertex 121 1 8
      vertex 122 2 8
      vertex 121 9 8
    endloop
  endfacet
  facet normal 1 -0 0
    outer loop
      vertex 129 1 8
      vertex 129 9 3
      vertex 129 9 8
    endloop
  endfacet
  facet normal 1 0 0
    outer loop
      vertex 129 9 3
      vertex 129 1 8
      vertex 129 1 3
    endloop
  endfacet
  facet normal 0 1 -0
    outer loop
      vertex 129 9 3
      vertex 121 9 8
      vertex 129 9 8
    endloop
  endfacet
  facet normal 0 1 0
    outer loop
      vertex 121 9 8
      vertex 129 9 3
      vertex 121 9 3
    endloop
  endfacet
  facet normal 0 -1 0
    outer loop
      vertex 121 1 3
      vertex 129 1 8
      vertex 121 1 8
    endloop
  endfacet
  facet normal 0 -1 -0
    outer loop
      vertex 129 1 8
      vertex 121 1 3
      vertex 129 1 3
    endloop
  endfacet
  facet normal -1 0 0
    outer loop
      vertex 1 81 3
      vertex 1 89 8
      vertex 1 89 3
    endloop
  endfacet
  facet normal -1 -0 0
    outer loop
      vertex 1 89 8
      vertex 1 81 3
      vertex 1 81 8
    endloop
  endfacet
  facet normal 0 0 1
    outer loop
      vertex 8.125 82 8
      vertex 9 89 8
      vertex 8.125 88.125 8
    endloop
  endfacet
  facet normal 0 0 1
    outer loop
      vertex 9 89 8
      vertex 2 88.125 8
      vertex 8.125 88.125 8
    endloop
  endfacet
  facet normal 0 0 1
    outer loop
      vertex 2 88.125 8
      vertex 1 89 8
      vertex 2 82 8
    endloop
  endfacet
  facet normal -0 0 1
    outer loop
      vertex 1 89 8
      vertex 2 88.125 8
      vertex 9 89 8
    endloop
  endfacet
  facet normal 0 0 1
    outer loop
      vertex 9 89 8
      vertex 8.125 82 8
      vertex 9 81 8
    endloop
  endfacet
  facet normal -0 0 1
    outer loop
      vertex 2 82 8
      vertex 9 81 8
      vertex 8.125 82 8
    endloop
  endfacet
  facet normal 0 0 1
    outer loop
      vertex 2 82 8
      vertex 1 81 8
      vertex 9 81 8
    endloop
  endfacet
  facet normal 0 0 1
    outer loop
      vertex 1 81 8
      vertex 2 82 8
      vertex 1 89 8
    endloop
  endfacet
  facet normal 1 -0 0
    outer loop
      vertex 9 81 8
      vertex 9 89 3
      vertex 9 89 8
    endloop
  endfacet
  facet normal 1 0 0
    outer loop
      vertex 9 89 3
      vertex 9 81 8
      vertex 9 81 3
    endloop
  endfacet
  facet normal 0 1 -0
    outer loop
      vertex 9 89 3
      vertex 1 89 8
      vertex 9 89 8
    endloop
  endfacet
  facet normal 0 1 0
    outer loop
      vertex 1 89 8
      vertex 9 89 3
      vertex 1 89 3
    endloop
  endfacet
  facet normal 0 -1 0
    outer loop
      vertex 1 81 3
      vertex 9 81 8
      vertex 1 81 8
    endloop
  endfacet
  facet normal 0 -1 -0
    outer loop
      vertex 9 81 8
      vertex 1 81 3
      vertex 9 81 3
    endloop
  endfacet
  facet normal -1 0 0
    outer loop
      vertex 121 81 3
      vertex 121 89 8
      vertex 121 89 3
    endloop
  endfacet
  facet normal -1 -0 0
    outer loop
      vertex 121 89 8
      vertex 121 81 3
      vertex 121 81 8
    endloop
  endfacet
  facet normal 0 0 1
    outer loop
      vertex 128.125 82 8
      vertex 129 89 8
      vertex 128.125 88.125 8
    endloop
  endfacet
  facet normal 0 0 1
    outer loop
      vertex 129 89 8
      vertex 122 88.125 8
      vertex 128.125 88.125 8
    endloop
  endfacet
  facet normal 0 0 1
    outer loop
      vertex 122 88.125 8
      vertex 121 89 8
      vertex 122 82 8
    endloop
  endfacet
  facet normal -0 0 1
    outer loop
      vertex 121 89 8
      vertex 122 88.125 8
      vertex 129 89 8
    endloop
  endfacet
  facet normal 0 0 1
    outer loop
      vertex 129 89 8
      vertex 128.125 82 8
      vertex 129 81 8
    endloop
  endfacet
  facet normal -0 0 1
    outer loop
      vertex 122 82 8
      vertex 129 81 8
      vertex 128.125 82 8
    endloop
  endfacet
  facet normal 0 0 1
    outer loop
      vertex 122 82 8
      vertex 121 81 8
      vertex 129 81 8
    endloop
  endfacet
  facet normal 0 0 1
    outer loop
      vertex 121 81 8
      vertex 122 82 8
      vertex 121 89 8
    endloop
  endfacet
  facet normal 1 -0 0
    outer loop
      vertex 129 81 8
      vertex 129 89 3
      vertex 129 89 8
    endloop
  endfacet
  facet normal 1 0 0
    outer loop
      vertex 129 89 3
      vertex 129 81 8
      vertex 129 81 3
    endloop
  endfacet
  facet normal 0 1 -0
    outer loop
      vertex 129 89 3
      vertex 121 89 8
      vertex 129 89 8
    endloop
  endfacet
  facet normal 0 1 0
    outer loop
      vertex 121 89 8
      vertex 129 89 3
      vertex 121 89 3
    endloop
  endfacet
  facet normal 0 -1 0
    outer loop
      vertex 121 81 3
      vertex 129 81 8
      vertex 121 81 8
    endloop
  endfacet
  facet normal 0 -1 -0
    outer loop
      vertex 129 81 8
      vertex 121 81 3
      vertex 129 81 3
    endloop
  endfacet
  facet normal 1 -0 0
    outer loop
      vertex 6.5 39.5 3
      vertex 6.5 46 0
      vertex 6.5 46 3
    endloop
  endfacet
  facet normal 1 0 0
    outer loop
      vertex 6.5 46 0
      vertex 6.5 39.5 3
      vertex 6.5 39.5 0
    endloop
  endfacet
  facet normal -1 0 0
    outer loop
      vertex 18.75 39.5 0
      vertex 18.75 46 3
      vertex 18.75 46 0
    endloop
  endfacet
  facet normal -1 -0 0
    outer loop
      vertex 18.75 46 3
      vertex 18.75 39.5 0
      vertex 18.75 39.5 3
    endloop
  endfacet
  facet normal 0 1 -0
    outer loop
      vertex 18.75 39.5 0
      vertex 6.5 39.5 3
      vertex 18.75 39.5 3
    endloop
  endfacet
  facet normal 0 1 0
    outer loop
      vertex 6.5 39.5 3
      vertex 18.75 39.5 0
      vertex 6.5 39.5 0
    endloop
  endfacet
  facet normal 0 -1 0
    outer loop
      vertex 6.5 46 0
      vertex 18.75 46 3
      vertex 6.5 46 3
    endloop
  endfacet
  facet normal 0 -1 -0
    outer loop
      vertex 18.75 46 3
      vertex 6.5 46 0
      vertex 18.75 46 0
    endloop
  endfacet
  facet normal 1 -0 0
    outer loop
      vertex 25.5 39.5 3
      vertex 25.5 46 0
      vertex 25.5 46 3
    endloop
  endfacet
  facet normal 1 0 0
    outer loop
      vertex 25.5 46 0
      vertex 25.5 39.5 3
      vertex 25.5 39.5 0
    endloop
  endfacet
  facet normal -1 0 0
    outer loop
      vertex 37.75 39.5 0
      vertex 37.75 46 3
      vertex 37.75 46 0
    endloop
  endfacet
  facet normal -1 -0 0
    outer loop
      vertex 37.75 46 3
      vertex 37.75 39.5 0
      vertex 37.75 39.5 3
    endloop
  endfacet
  facet normal 0 1 -0
    outer loop
      vertex 37.75 39.5 0
      vertex 25.5 39.5 3
      vertex 37.75 39.5 3
    endloop
  endfacet
  facet normal 0 1 0
    outer loop
      vertex 25.5 39.5 3
      vertex 37.75 39.5 0
      vertex 25.5 39.5 0
    endloop
  endfacet
  facet normal 0 -1 0
    outer loop
      vertex 25.5 46 0
      vertex 37.75 46 3
      vertex 25.5 46 3
    endloop
  endfacet
  facet normal 0 -1 -0
    outer loop
      vertex 37.75 46 3
      vertex 25.5 46 0
      vertex 37.75 46 0
    endloop
  endfacet
  facet normal 1 -0 0
    outer loop
      vertex 44.5 39.5 3
      vertex 44.5 46 0
      vertex 44.5 46 3
    endloop
  endfacet
  facet normal 1 0 0
    outer loop
      vertex 44.5 46 0
      vertex 44.5 39.5 3
      vertex 44.5 39.5 0
    endloop
  endfacet
  facet normal -1 0 0
    outer loop
      vertex 56.75 39.5 0
      vertex 56.75 46 3
      vertex 56.75 46 0
    endloop
  endfacet
  facet normal -1 -0 0
    outer loop
      vertex 56.75 46 3
      vertex 56.75 39.5 0
      vertex 56.75 39.5 3
    endloop
  endfacet
  facet normal 0 1 -0
    outer loop
      vertex 56.75 39.5 0
      vertex 44.5 39.5 3
      vertex 56.75 39.5 3
    endloop
  endfacet
  facet normal 0 1 0
    outer loop
      vertex 44.5 39.5 3
      vertex 56.75 39.5 0
      vertex 44.5 39.5 0
    endloop
  endfacet
  facet normal 0 -1 0
    outer loop
      vertex 44.5 46 0
      vertex 56.75 46 3
      vertex 44.5 46 3
    endloop
  endfacet
  facet normal 0 -1 -0
    outer loop
      vertex 56.75 46 3
      vertex 44.5 46 0
      vertex 56.75 46 0
    endloop
  endfacet
  facet normal 1 -0 0
    outer loop
      vertex 39.5 3 3
      vertex 39.5 9.5 0
      vertex 39.5 9.5 3
    endloop
  endfacet
  facet normal 1 0 0
    outer loop
      vertex 39.5 9.5 0
      vertex 39.5 3 3
      vertex 39.5 3 0
    endloop
  endfacet
  facet normal -1 0 0
    outer loop
      vertex 51.75 3 0
      vertex 51.75 9.5 3
      vertex 51.75 9.5 0
    endloop
  endfacet
  facet normal -1 -0 0
    outer loop
      vertex 51.75 9.5 3
      vertex 51.75 3 0
      vertex 51.75 3 3
    endloop
  endfacet
  facet normal 0 1 -0
    outer loop
      vertex 51.75 3 0
      vertex 39.5 3 3
      vertex 51.75 3 3
    endloop
  endfacet
  facet normal 0 1 0
    outer loop
      vertex 39.5 3 3
      vertex 51.75 3 0
      vertex 39.5 3 0
    endloop
  endfacet
  facet normal 0 -1 0
    outer loop
      vertex 39.5 9.5 0
      vertex 51.75 9.5 3
      vertex 39.5 9.5 3
    endloop
  endfacet
  facet normal 0 -1 -0
    outer loop
      vertex 51.75 9.5 3
      vertex 39.5 9.5 0
      vertex 51.75 9.5 0
    endloop
  endfacet
  facet normal 1 -0 0
    outer loop
      vertex 14.5 3 3
      vertex 14.5 9.5 0
      vertex 14.5 9.5 3
    endloop
  endfacet
  facet normal 1 0 0
    outer loop
      vertex 14.5 9.5 0
      vertex 14.5 3 3
      vertex 14.5 3 0
    endloop
  endfacet
  facet normal -1 0 0
    outer loop
      vertex 26.75 3 0
      vertex 26.75 9.5 3
      vertex 26.75 9.5 0
    endloop
  endfacet
  facet normal -1 -0 0
    outer loop
      vertex 26.75 9.5 3
      vertex 26.75 3 0
      vertex 26.75 3 3
    endloop
  endfacet
  facet normal 0 -1 0
    outer loop
      vertex 14.5 9.5 0
      vertex 26.75 9.5 3
      vertex 14.5 9.5 3
    endloop
  endfacet
  facet normal 0 -1 -0
    outer loop
      vertex 26.75 9.5 3
      vertex 14.5 9.5 0
      vertex 26.75 9.5 0
    endloop
  endfacet
  facet normal 0 1 -0
    outer loop
      vertex 26.75 3 0
      vertex 14.5 3 3
      vertex 26.75 3 3
    endloop
  endfacet
  facet normal 0 1 0
    outer loop
      vertex 14.5 3 3
      vertex 26.75 3 0
      vertex 14.5 3 0
    endloop
  endfacet
  facet normal 1 -0 0
    outer loop
      vertex 20 75 3
      vertex 20 81.5 0
      vertex 20 81.5 3
    endloop
  endfacet
  facet normal 1 0 0
    outer loop
      vertex 20 81.5 0
      vertex 20 75 3
      vertex 20 75 0
    endloop
  endfacet
  facet normal -1 0 0
    outer loop
      vertex 32.25 75 0
      vertex 32.25 81.5 3
      vertex 32.25 81.5 0
    endloop
  endfacet
  facet normal -1 -0 0
    outer loop
      vertex 32.25 81.5 3
      vertex 32.25 75 0
      vertex 32.25 75 3
    endloop
  endfacet
  facet normal 0 -1 0
    outer loop
      vertex 20 81.5 0
      vertex 32.25 81.5 3
      vertex 20 81.5 3
    endloop
  endfacet
  facet normal 0 -1 -0
    outer loop
      vertex 32.25 81.5 3
      vertex 20 81.5 0
      vertex 32.25 81.5 0
    endloop
  endfacet
  facet normal 0 1 -0
    outer loop
      vertex 32.25 75 0
      vertex 20 75 3
      vertex 32.25 75 3
    endloop
  endfacet
  facet normal 0 1 0
    outer loop
      vertex 20 75 3
      vertex 32.25 75 0
      vertex 20 75 0
    endloop
  endfacet
  facet normal 1 -0 0
    outer loop
      vertex 43 64 3
      vertex 43 76.25 0
      vertex 43 76.25 3
    endloop
  endfacet
  facet normal 1 0 0
    outer loop
      vertex 43 76.25 0
      vertex 43 64 3
      vertex 43 64 0
    endloop
  endfacet
  facet normal -1 0 0
    outer loop
      vertex 50.5 64 0
      vertex 50.5 76.25 3
      vertex 50.5 76.25 0
    endloop
  endfacet
  facet normal -1 -0 0
    outer loop
      vertex 50.5 76.25 3
      vertex 50.5 64 0
      vertex 50.5 64 3
    endloop
  endfacet
  facet normal 0 -1 0
    outer loop
      vertex 43 76.25 0
      vertex 50.5 76.25 3
      vertex 43 76.25 3
    endloop
  endfacet
  facet normal 0 -1 -0
    outer loop
      vertex 50.5 76.25 3
      vertex 43 76.25 0
      vertex 50.5 76.25 0
    endloop
  endfacet
  facet normal 0 1 -0
    outer loop
      vertex 50.5 64 0
      vertex 43 64 3
      vertex 50.5 64 3
    endloop
  endfacet
  facet normal 0 1 0
    outer loop
      vertex 43 64 3
      vertex 50.5 64 0
      vertex 43 64 0
    endloop
  endfacet
  facet normal 1 -0 0
    outer loop
      vertex 97.5 76 3
      vertex 97.5 82.5 0
      vertex 97.5 82.5 3
    endloop
  endfacet
  facet normal 1 0 0
    outer loop
      vertex 97.5 82.5 0
      vertex 97.5 76 3
      vertex 97.5 76 0
    endloop
  endfacet
  facet normal -1 0 0
    outer loop
      vertex 109.75 76 0
      vertex 109.75 82.5 3
      vertex 109.75 82.5 0
    endloop
  endfacet
  facet normal -1 -0 0
    outer loop
      vertex 109.75 82.5 3
      vertex 109.75 76 0
      vertex 109.75 76 3
    endloop
  endfacet
  facet normal 0 -1 0
    outer loop
      vertex 97.5 82.5 0
      vertex 109.75 82.5 3
      vertex 97.5 82.5 3
    endloop
  endfacet
  facet normal 0 -1 -0
    outer loop
      vertex 109.75 82.5 3
      vertex 97.5 82.5 0
      vertex 109.75 82.5 0
    endloop
  endfacet
  facet normal 0 1 -0
    outer loop
      vertex 109.75 76 0
      vertex 97.5 76 3
      vertex 109.75 76 3
    endloop
  endfacet
  facet normal 0 1 0
    outer loop
      vertex 97.5 76 3
      vertex 109.75 76 0
      vertex 97.5 76 0
    endloop
  endfacet
  facet normal 1 -0 0
    outer loop
      vertex 62 33 3
      vertex 62 39.5 0
      vertex 62 39.5 3
    endloop
  endfacet
  facet normal 1 0 0
    outer loop
      vertex 62 39.5 0
      vertex 62 33 3
      vertex 62 33 0
    endloop
  endfacet
  facet normal -1 0 0
    outer loop
      vertex 74.25 33 0
      vertex 74.25 39.5 3
      vertex 74.25 39.5 0
    endloop
  endfacet
  facet normal -1 -0 0
    outer loop
      vertex 74.25 39.5 3
      vertex 74.25 33 0
      vertex 74.25 33 3
    endloop
  endfacet
  facet normal 0 1 -0
    outer loop
      vertex 74.25 33 0
      vertex 62 33 3
      vertex 74.25 33 3
    endloop
  endfacet
  facet normal 0 1 0
    outer loop
      vertex 62 33 3
      vertex 74.25 33 0
      vertex 62 33 0
    endloop
  endfacet
  facet normal 0 -1 0
    outer loop
      vertex 62 39.5 0
      vertex 74.25 39.5 3
      vertex 62 39.5 3
    endloop
  endfacet
  facet normal 0 -1 -0
    outer loop
      vertex 74.25 39.5 3
      vertex 62 39.5 0
      vertex 74.25 39.5 0
    endloop
  endfacet
  facet normal 1 -0 0
    outer loop
      vertex 93.5 3 3
      vertex 93.5 9.5 0
      vertex 93.5 9.5 3
    endloop
  endfacet
  facet normal 1 0 0
    outer loop
      vertex 93.5 9.5 0
      vertex 93.5 3 3
      vertex 93.5 3 0
    endloop
  endfacet
  facet normal -1 0 0
    outer loop
      vertex 105.75 3 0
      vertex 105.75 9.5 3
      vertex 105.75 9.5 0
    endloop
  endfacet
  facet normal -1 -0 0
    outer loop
      vertex 105.75 9.5 3
      vertex 105.75 3 0
      vertex 105.75 3 3
    endloop
  endfacet
  facet normal 0 -1 0
    outer loop
      vertex 93.5 9.5 0
      vertex 105.75 9.5 3
      vertex 93.5 9.5 3
    endloop
  endfacet
  facet normal 0 -1 -0
    outer loop
      vertex 105.75 9.5 3
      vertex 93.5 9.5 0
      vertex 105.75 9.5 0
    endloop
  endfacet
  facet normal 0 1 -0
    outer loop
      vertex 105.75 3 0
      vertex 93.5 3 3
      vertex 105.75 3 3
    endloop
  endfacet
  facet normal 0 1 0
    outer loop
      vertex 93.5 3 3
      vertex 105.75 3 0
      vertex 93.5 3 0
    endloop
  endfacet
  facet normal 1 -0 0
    outer loop
      vertex 2 2 8
      vertex 2 8.125 0
      vertex 2 8.125 8
    endloop
  endfacet
  facet normal 1 0 0
    outer loop
      vertex 2 8.125 0
      vertex 2 2 8
      vertex 2 2 0
    endloop
  endfacet
  facet normal -1 0 0
    outer loop
      vertex 8.125 2 0
      vertex 8.125 8.125 8
      vertex 8.125 8.125 0
    endloop
  endfacet
  facet normal -1 -0 0
    outer loop
      vertex 8.125 8.125 8
      vertex 8.125 2 0
      vertex 8.125 2 8
    endloop
  endfacet
  facet normal 0 -1 0
    outer loop
      vertex 2 8.125 0
      vertex 8.125 8.125 8
      vertex 2 8.125 8
    endloop
  endfacet
  facet normal 0 -1 -0
    outer loop
      vertex 8.125 8.125 8
      vertex 2 8.125 0
      vertex 8.125 8.125 0
    endloop
  endfacet
  facet normal 0 1 -0
    outer loop
      vertex 8.125 2 0
      vertex 2 2 8
      vertex 8.125 2 8
    endloop
  endfacet
  facet normal 0 1 0
    outer loop
      vertex 2 2 8
      vertex 8.125 2 0
      vertex 2 2 0
    endloop
  endfacet
  facet normal 1 -0 0
    outer loop
      vertex 122 2 8
      vertex 122 8.125 0
      vertex 122 8.125 8
    endloop
  endfacet
  facet normal 1 0 0
    outer loop
      vertex 122 8.125 0
      vertex 122 2 8
      vertex 122 2 0
    endloop
  endfacet
  facet normal -1 0 0
    outer loop
      vertex 128.125 2 0
      vertex 128.125 8.125 8
      vertex 128.125 8.125 0
    endloop
  endfacet
  facet normal -1 -0 0
    outer loop
      vertex 128.125 8.125 8
      vertex 128.125 2 0
      vertex 128.125 2 8
    endloop
  endfacet
  facet normal 0 -1 0
    outer loop
      vertex 122 8.125 0
      vertex 128.125 8.125 8
      vertex 122 8.125 8
    endloop
  endfacet
  facet normal 0 -1 -0
    outer loop
      vertex 128.125 8.125 8
      vertex 122 8.125 0
      vertex 128.125 8.125 0
    endloop
  endfacet
  facet normal 0 1 -0
    outer loop
      vertex 128.125 2 0
      vertex 122 2 8
      vertex 128.125 2 8
    endloop
  endfacet
  facet normal 0 1 0
    outer loop
      vertex 122 2 8
      vertex 128.125 2 0
      vertex 122 2 0
    endloop
  endfacet
  facet normal 1 -0 0
    outer loop
      vertex 2 82 8
      vertex 2 88.125 0
      vertex 2 88.125 8
    endloop
  endfacet
  facet normal 1 0 0
    outer loop
      vertex 2 88.125 0
      vertex 2 82 8
      vertex 2 82 0
    endloop
  endfacet
  facet normal -1 0 0
    outer loop
      vertex 8.125 82 0
      vertex 8.125 88.125 8
      vertex 8.125 88.125 0
    endloop
  endfacet
  facet normal -1 -0 0
    outer loop
      vertex 8.125 88.125 8
      vertex 8.125 82 0
      vertex 8.125 82 8
    endloop
  endfacet
  facet normal 0 -1 0
    outer loop
      vertex 2 88.125 0
      vertex 8.125 88.125 8
      vertex 2 88.125 8
    endloop
  endfacet
  facet normal 0 -1 -0
    outer loop
      vertex 8.125 88.125 8
      vertex 2 88.125 0
      vertex 8.125 88.125 0
    endloop
  endfacet
  facet normal 0 1 -0
    outer loop
      vertex 8.125 82 0
      vertex 2 82 8
      vertex 8.125 82 8
    endloop
  endfacet
  facet normal 0 1 0
    outer loop
      vertex 2 82 8
      vertex 8.125 82 0
      vertex 2 82 0
    endloop
  endfacet
  facet normal 1 -0 0
    outer loop
      vertex 122 82 8
      vertex 122 88.125 0
      vertex 122 88.125 8
    endloop
  endfacet
  facet normal 1 0 0
    outer loop
      vertex 122 88.125 0
      vertex 122 82 8
      vertex 122 82 0
    endloop
  endfacet
  facet normal -1 0 0
    outer loop
      vertex 128.125 82 0
      vertex 128.125 88.125 8
      vertex 128.125 88.125 0
    endloop
  endfacet
  facet normal -1 -0 0
    outer loop
      vertex 128.125 88.125 8
      vertex 128.125 82 0
      vertex 128.125 82 8
    endloop
  endfacet
  facet normal 0 1 -0
    outer loop
      vertex 128.125 82 0
      vertex 122 82 8
      vertex 128.125 82 8
    endloop
  endfacet
  facet normal 0 1 0
    outer loop
      vertex 122 82 8
      vertex 128.125 82 0
      vertex 122 82 0
    endloop
  endfacet
  facet normal 0 -1 0
    outer loop
      vertex 122 88.125 0
      vertex 128.125 88.125 8
      vertex 122 88.125 8
    endloop
  endfacet
  facet normal 0 -1 -0
    outer loop
      vertex 128.125 88.125 8
      vertex 122 88.125 0
      vertex 128.125 88.125 0
    endloop
  endfacet
endsolid OpenSCAD_Model
